<svg width="185" height="258" viewBox="0 0 185 258" fill="none" xmlns="http://www.w3.org/2000/svg">
<g clip-path="url(#clip0_122_20)">
<path d="M2.18 253.58L0 81.13C0 81.13 26.19 -57.48 121.15 27.65L184.45 233.93C184.45 233.93 147.33 251.2 132.99 238.9C118.65 226.6 100.88 236.17 100.88 240.95C100.88 245.73 74.24 249.83 63.99 242.32C53.74 234.81 48.96 241.64 46.91 247.1C44.86 252.56 3.93 264.15 2.19 253.57L2.18 253.58Z" fill="#F2E9E4"/>
<path d="M51.19 83.7C53.85 95.03 50.98 105.4 44.78 106.85C38.58 108.3 31.4 100.3 28.74 88.97C26.08 77.64 32.11 84.06 38.31 82.61C44.51 81.16 48.54 72.38 51.19 83.71V83.7Z" fill="#96B964"/>
<path d="M100.94 75.09C103.6 86.42 100.73 96.79 94.53 98.24C88.33 99.69 81.15 91.69 78.49 80.36C75.83 69.03 81.86 75.45 88.06 74C94.26 72.55 98.29 63.77 100.94 75.1V75.09Z" fill="#96B964"/>
</g>
<defs>
<clipPath id="clip0_122_20">
<rect width="184.45" height="257.87" fill="white"/>
</clipPath>
</defs>
</svg>
