<svg width="159" height="406" viewBox="0 0 159 406" fill="none" xmlns="http://www.w3.org/2000/svg">
<g clip-path="url(#clip0_63_311)">
<path d="M146.576 1.94794H0V406.005H146.576V1.94794Z" fill="#BDDB88"/>
<path opacity="0.61" d="M133.065 35.9176H10.7278V373.168H133.065V35.9176Z" fill="#F4E9C8"/>
<path d="M133.558 81.9655H11.1819V90.8216H133.558V81.9655Z" fill="#F4E9C8"/>
<path d="M132.845 124.825H10.469V133.682H132.845V124.825Z" fill="#F4E9C8"/>
<path d="M132.845 164.112H10.469V172.968H132.845V164.112Z" fill="#F4E9C8"/>
<path d="M134.989 209.115H12.6125V217.971H134.989V209.115Z" fill="#F4E9C8"/>
<path d="M134.271 254.118H11.8948V262.974H134.271V254.118Z" fill="#F4E9C8"/>
<path d="M133.558 308.407H11.1819V317.263H133.558V308.407Z" fill="#F4E9C8"/>
<path d="M70.7882 4.29138L59.2107 18.2298L77.888 14.8123L64.4745 25.592L85.5151 12.4445L66.8427 14.285L70.7882 4.29138Z" fill="#EBC140"/>
<path d="M135.025 317H13V372.778H135.025V317Z" fill="#EB7340"/>
</g>
<defs>
<clipPath id="clip0_63_311">
<rect width="159" height="406" fill="white"/>
</clipPath>
</defs>
</svg>
