<svg width="147" height="405" viewBox="0 0 147 405" fill="none" xmlns="http://www.w3.org/2000/svg">
<path d="M146.576 0H0V404.057H146.576V0Z" fill="#BDDB88"/>
<path opacity="0.61" d="M133.065 33.9696H10.7275V371.22H133.065V33.9696Z" fill="#F4E9C8"/>
<path d="M133.558 80.0176H11.1816V88.8737H133.558V80.0176Z" fill="#F4E9C8"/>
<path d="M132.84 122.878H10.4639V131.734H132.84V122.878Z" fill="#F4E9C8"/>
<path d="M132.84 162.164H10.4639V171.02H132.84V162.164Z" fill="#F4E9C8"/>
<path d="M134.984 207.167H12.6079V216.023H134.984V207.167Z" fill="#F4E9C8"/>
<path d="M134.944 159H12.5674V167.856H134.944V159Z" fill="#F4E9C8"/>
<path d="M134.271 252.17H11.895V261.026H134.271V252.17Z" fill="#F4E9C8"/>
<path d="M133.558 306.459H11.1816V315.315H133.558V306.459Z" fill="#F4E9C8"/>
<path d="M133.065 315.442H11.04V371.22H133.065V315.442Z" fill="#EBC140"/>
<path d="M133.065 261.104H11.04V307.235H133.065V261.104Z" fill="#EBC140"/>
<path d="M133.065 213.855H11.04V255.246H133.065V213.855Z" fill="#EBC140"/>
<path d="M133.025 165.688H11V207.079H133.025V165.688Z" fill="#CCEB40"/>
<path d="M133 130H11V159H133V130Z" fill="#A9EB40"/>
<path d="M76.0326 4.99927L64.46 18.9377L83.1372 15.5202L69.7189 26.2999L90.7644 13.1524L72.0871 14.9929L76.0326 4.99927Z" fill="#EBC140"/>
<path d="M133 89H11V123H133V89Z" fill="#8DEB40"/>
<path d="M133 34H11V80H133V34Z" fill="#3AE318"/>
</svg>
