<svg width="426" height="293" viewBox="0 0 426 293" fill="none" xmlns="http://www.w3.org/2000/svg">
<path d="M128.649 275.918C166.854 253.278 178.863 202.926 155.472 163.452C132.081 123.978 82.1473 110.331 43.9422 132.971C5.73701 155.61 -6.27204 205.963 17.1192 245.437C40.5104 284.91 90.4441 298.557 128.649 275.918Z" stroke="#83262F" stroke-width="10.35" stroke-miterlimit="10"/>
<path d="M83.6601 206.32L40.8901 136.94L125.64 276.74" stroke="#83262F" stroke-width="4.63" stroke-miterlimit="10"/>
<path d="M83.3502 206.19L12.1602 166.53L154.37 247.15" stroke="#83262F" stroke-width="4.63" stroke-miterlimit="10"/>
<path d="M83.1601 206.2L3.87012 187.38L162.64 226.3" stroke="#83262F" stroke-width="4.63" stroke-miterlimit="10"/>
<path d="M87.5902 203.52L156.96 160.76L17.1702 245.51" stroke="#83262F" stroke-width="4.63" stroke-miterlimit="10"/>
<path d="M86.92 203.22L126.58 132.03L45.97 274.24" stroke="#83262F" stroke-width="4.63" stroke-miterlimit="10"/>
<path d="M85.34 203.03L104.16 123.74L65.24 282.51" stroke="#83262F" stroke-width="4.63" stroke-miterlimit="10"/>
<path d="M82.86 206.32L4.46997 228.62L162.04 185.06" stroke="#83262F" stroke-width="4.63" stroke-miterlimit="10"/>
<path d="M381.651 273.56C419.857 250.92 431.866 200.568 408.474 161.094C385.083 121.62 335.149 107.973 296.944 130.613C258.739 153.252 246.73 203.605 270.121 243.079C293.513 282.552 343.446 296.199 381.651 273.56Z" stroke="#83262F" stroke-width="10.35" stroke-miterlimit="10"/>
<path d="M336.65 203.96L293.89 134.59L378.63 274.38" stroke="#83262F" stroke-width="4.63" stroke-miterlimit="10"/>
<path d="M336.34 203.84L265.15 164.18L407.37 244.79" stroke="#83262F" stroke-width="4.63" stroke-miterlimit="10"/>
<path d="M336.15 203.84L256.86 185.02L415.63 223.95" stroke="#83262F" stroke-width="4.63" stroke-miterlimit="10"/>
<path d="M340.58 201.17L409.95 158.41L270.16 243.16" stroke="#83262F" stroke-width="4.63" stroke-miterlimit="10"/>
<path d="M339.91 200.87L379.58 129.68L298.96 271.89" stroke="#83262F" stroke-width="4.63" stroke-miterlimit="10"/>
<path d="M338.34 200.68L357.15 121.39L318.23 280.16" stroke="#83262F" stroke-width="4.63" stroke-miterlimit="10"/>
<path d="M88.8501 197.21L335.85 203.97L257.47 226.26L415.03 182.71" stroke="#83262F" stroke-width="4.63" stroke-miterlimit="10"/>
<path d="M194.24 100.05L109.43 198.03L291.4 204.62L194.24 100.05Z" stroke="#83262F" stroke-width="4.63" stroke-miterlimit="10"/>
<path d="M265.23 177.11L297.5 35.47L255.37 3.64001L350.84 17.99L316.78 33.68" stroke="#83262F" stroke-width="4.63" stroke-miterlimit="10"/>
<path d="M196.72 101.14L217.64 59.3L127.12 58.47L111.93 73.06L196.72 101.14Z" fill="#83262F"/>
</svg>
