<svg width="1448" height="156" viewBox="0 0 1448 156" fill="none" xmlns="http://www.w3.org/2000/svg">
<g clip-path="url(#clip0_62_2)">
<path d="M45.7619 133.069C45.7619 133.069 41.2598 124.486 47.5233 123.115C53.7867 121.743 56.3217 123.115 56.3217 123.115C56.3217 123.115 46.5438 114.918 51.8196 105.941C57.0954 96.9641 67.2684 103.797 68.4453 107.116L69.6223 110.434L71.1861 112.191C71.1861 112.191 71.968 95.0176 85.4661 91.1164C98.9642 87.2152 106.981 97.5555 106.981 97.5555C106.981 97.5555 112.454 104.775 109.722 117.07C109.722 117.07 116.569 110.828 119.113 117.267C121.656 123.706 116.182 125.267 116.182 125.267C116.182 125.267 126.158 120.971 129.483 126.63C132.808 132.289 132.026 134.63 132.026 134.63L45.7784 133.069H45.7619Z" fill="#768B3B"/>
<path d="M92.4701 132.174C92.4701 132.174 85.3836 118.647 95.2438 116.495C105.104 114.343 109.104 116.495 109.104 116.495C109.104 116.495 93.7047 103.584 102.018 89.4408C110.33 75.2978 126.355 86.057 128.199 91.2888L130.051 96.5123L132.512 99.2801C132.512 99.2801 133.746 72.2261 154.998 66.0827C176.249 59.9311 188.883 76.2259 188.883 76.2259C188.883 76.2259 197.508 87.6011 193.196 106.968C193.196 106.968 203.978 97.1283 207.978 107.272C211.978 117.415 203.36 119.87 203.36 119.87C203.36 119.87 219.072 113.111 224.307 122.022C229.542 130.934 228.315 134.621 228.315 134.621L92.4701 132.165V132.174Z" fill="#93A53B"/>
<path d="M3.22635 126.753C3.22635 126.753 -6.04947 101.35 6.85602 97.3007C19.7533 93.2598 24.9961 97.3007 24.9961 97.3007C24.9961 97.3007 4.83954 73.0473 15.7203 46.4861C26.6011 19.9249 47.5725 40.1374 49.9841 49.9521L52.4039 59.7667L55.6302 64.9656C55.6302 64.9656 57.2434 14.1511 85.0627 2.60342C112.882 -8.94422 129.409 21.6579 129.409 21.6579C129.409 21.6579 140.693 43.0202 135.055 79.4043C135.055 79.4043 149.162 60.9248 154.405 79.9792C159.648 99.0337 148.356 103.658 148.356 103.658C148.356 103.658 168.915 90.952 175.772 107.699C182.628 124.445 181.014 131.377 181.014 131.377L3.22635 126.753Z" fill="#93A53B"/>
<path d="M52.2475 104.298C52.2475 104.298 45.161 90.7714 55.0212 88.6196C64.8814 86.4678 68.8814 88.6196 68.8814 88.6196C68.8814 88.6196 53.4821 75.7086 61.7949 61.5656C70.1078 47.4226 86.1326 58.1818 87.9763 63.4135L89.8281 68.6371L92.2891 71.4049C92.2891 71.4049 93.5237 44.3509 114.775 38.2075C136.026 32.0558 148.66 48.3507 148.66 48.3507C148.66 48.3507 157.286 59.7259 152.973 79.0924C152.973 79.0924 163.755 69.2531 167.755 79.3963C171.755 89.5395 163.138 91.9952 163.138 91.9952C163.138 91.9952 178.85 85.2358 184.084 94.147C189.319 103.058 188.093 106.746 188.093 106.746L52.2475 104.29V104.298Z" fill="#93A53B"/>
<path d="M5.59684 133.397C5.59684 133.397 -1.48966 119.87 8.37054 117.719C18.2307 115.567 22.2308 117.719 22.2308 117.719C22.2308 117.719 6.83143 104.808 15.1443 90.6646C23.4571 76.5216 39.482 87.2808 41.3256 92.5125L43.1775 97.7361L45.6385 100.504C45.6385 100.504 46.873 73.4499 68.1243 67.3065C89.3756 61.1548 102.009 77.4497 102.009 77.4497C102.009 77.4497 110.635 88.8248 106.322 108.191C106.322 108.191 117.104 98.3521 121.104 108.495C125.104 118.638 116.487 121.094 116.487 121.094C116.487 121.094 132.199 114.335 137.434 123.246C142.668 132.157 141.442 135.845 141.442 135.845L5.59684 133.389V133.397Z" fill="#5C8039"/>
<path d="M169.755 135.098C169.755 135.098 162.669 121.571 172.529 119.419C182.389 117.267 186.389 119.419 186.389 119.419C186.389 119.419 170.99 106.508 179.302 92.3648C187.615 78.2218 203.64 88.981 205.484 94.2127L207.336 99.4363L209.797 102.204C209.797 102.204 211.031 75.1501 232.283 69.0067C253.534 62.855 266.168 79.1499 266.168 79.1499C266.168 79.1499 274.793 90.525 270.48 109.892C270.48 109.892 281.262 100.052 285.263 110.195C289.263 120.339 280.645 122.794 280.645 122.794C280.645 122.794 296.357 116.035 301.592 124.946C306.827 133.857 305.6 137.545 305.6 137.545L169.755 135.089V135.098Z" fill="#5C8039"/>
<path d="M292.003 136.486C292.003 136.486 287.501 127.903 293.765 126.531C300.028 125.16 302.563 126.531 302.563 126.531C302.563 126.531 292.785 118.335 298.061 109.358C303.337 100.381 313.51 107.214 314.687 110.532L315.864 113.85L317.428 115.608C317.428 115.608 318.209 98.4343 331.708 94.533C345.206 90.6318 353.222 100.972 353.222 100.972C353.222 100.972 358.695 108.191 355.963 120.486C355.963 120.486 362.811 114.245 365.354 120.684C367.897 127.123 362.424 128.683 362.424 128.683C362.424 128.683 372.399 124.388 375.725 130.047C379.05 135.705 378.268 138.046 378.268 138.046L292.02 136.486H292.003Z" fill="#768B3B"/>
<path d="M338.712 135.582C338.712 135.582 331.625 122.055 341.485 119.903C351.345 117.751 355.346 119.903 355.346 119.903C355.346 119.903 339.946 106.992 348.259 92.8493C356.572 78.7063 372.597 89.4655 374.44 94.6972L376.292 99.9208L378.753 102.689C378.753 102.689 379.988 75.6346 401.239 69.4912C422.49 63.3395 435.124 79.6344 435.124 79.6344C435.124 79.6344 443.75 91.0095 439.437 110.376C439.437 110.376 450.219 100.537 454.219 110.68C458.219 120.823 449.602 123.279 449.602 123.279C449.602 123.279 465.314 116.519 470.548 125.431C475.783 134.342 474.557 138.03 474.557 138.03L338.712 135.574V135.582Z" fill="#93A53B"/>
<path d="M249.46 130.162C249.46 130.162 240.184 104.758 253.089 100.709C265.986 96.6684 271.229 100.709 271.229 100.709C271.229 100.709 251.073 76.4559 261.953 49.8947C272.834 23.3335 293.806 43.546 296.217 53.3606L298.637 63.1753L301.863 68.3742C301.863 68.3742 303.477 17.5596 331.296 6.01199C359.115 -5.53566 375.642 25.0664 375.642 25.0664C375.642 25.0664 386.926 46.4288 381.288 82.8129C381.288 82.8129 395.395 64.3334 400.638 83.3878C405.881 102.442 394.589 107.066 394.589 107.066C394.589 107.066 415.149 94.3605 422.005 111.107C428.861 127.854 427.248 134.786 427.248 134.786L249.46 130.17V130.162Z" fill="#93A53B"/>
<path d="M298.489 107.715C298.489 107.715 291.402 94.1881 301.263 92.0362C311.123 89.8844 315.123 92.0362 315.123 92.0362C315.123 92.0362 299.724 79.1252 308.036 64.9822C316.349 50.8392 332.374 61.5984 334.218 66.8302L336.07 72.0537L338.531 74.8215C338.531 74.8215 339.765 47.7675 361.016 41.6241C382.268 35.4725 394.902 51.7673 394.902 51.7673C394.902 51.7673 403.527 63.1425 399.214 82.509C399.214 82.509 409.996 72.6697 413.996 82.8129C417.996 92.9561 409.379 95.4118 409.379 95.4118C409.379 95.4118 425.091 88.6524 430.326 97.5637C435.56 106.475 434.334 110.163 434.334 110.163L298.489 107.707V107.715Z" fill="#93A53B"/>
<path d="M251.83 136.806C251.83 136.806 244.743 123.279 254.604 121.127C264.464 118.975 268.464 121.127 268.464 121.127C268.464 121.127 253.065 108.216 261.377 94.073C269.69 79.93 285.715 90.6892 287.559 95.921L289.411 101.145L291.872 103.912C291.872 103.912 293.106 76.8583 314.357 70.7149C335.609 64.5633 348.243 80.8581 348.243 80.8581C348.243 80.8581 356.868 92.2333 352.555 111.6C352.555 111.6 363.337 101.761 367.337 111.904C371.338 122.047 362.72 124.503 362.72 124.503C362.72 124.503 378.432 117.743 383.667 126.654C388.901 135.566 387.675 139.253 387.675 139.253L251.83 136.798V136.806Z" fill="#5C8039"/>
<path d="M415.988 138.514C415.988 138.514 408.902 124.987 418.762 122.835C428.622 120.684 432.622 122.835 432.622 122.835C432.622 122.835 417.223 109.924 425.536 95.7814C433.848 81.6384 449.873 92.3976 451.717 97.6294L453.569 102.853L456.03 105.621C456.03 105.621 457.264 78.5667 478.516 72.4233C499.767 66.2717 512.401 82.5665 512.401 82.5665C512.401 82.5665 521.026 93.9417 516.714 113.308C516.714 113.308 527.496 103.469 531.496 113.612C535.496 123.755 526.878 126.211 526.878 126.211C526.878 126.211 542.59 119.452 547.825 128.363C553.06 137.274 551.833 140.962 551.833 140.962L415.988 138.506V138.514Z" fill="#5C8039"/>
<path d="M495.487 139.894C495.487 139.894 490.985 131.311 497.248 129.94C503.512 128.568 506.047 129.94 506.047 129.94C506.047 129.94 496.269 121.743 501.545 112.766C506.82 103.789 516.993 110.623 518.17 113.941L519.347 117.259L520.911 119.016C520.911 119.016 521.693 101.843 535.191 97.9415C548.689 94.0402 556.706 104.381 556.706 104.381C556.706 104.381 562.179 111.6 559.447 123.895C559.447 123.895 566.294 117.653 568.838 124.092C571.381 130.531 565.908 132.092 565.908 132.092C565.908 132.092 575.883 127.796 579.208 133.455C582.533 139.114 581.751 141.455 581.751 141.455L495.504 139.894H495.487Z" fill="#768B3B"/>
<path d="M542.195 138.999C542.195 138.999 535.109 125.472 544.969 123.32C554.829 121.168 558.829 123.32 558.829 123.32C558.829 123.32 543.43 110.409 551.743 96.266C560.056 82.123 576.081 92.8822 577.924 98.114L579.776 103.338L582.237 106.105C582.237 106.105 583.472 79.0513 604.723 72.9079C625.974 66.7563 638.608 83.0511 638.608 83.0511C638.608 83.0511 647.234 94.4263 642.921 113.793C642.921 113.793 653.703 103.954 657.703 114.097C661.703 124.24 653.086 126.696 653.086 126.696C653.086 126.696 668.798 119.936 674.032 128.847C679.267 137.759 678.041 141.446 678.041 141.446L542.195 138.991V138.999Z" fill="#93A53B"/>
<path d="M452.952 133.578C452.952 133.578 443.676 108.175 456.581 104.126C469.479 100.085 474.722 104.126 474.722 104.126C474.722 104.126 454.565 79.8726 465.446 53.3113C476.326 26.7501 497.298 46.9626 499.709 56.7773L502.129 66.5919L505.356 71.7908C505.356 71.7908 506.969 20.9763 534.788 9.42862C562.607 -2.11903 579.134 28.4831 579.134 28.4831C579.134 28.4831 590.418 49.8454 584.78 86.2295C584.78 86.2295 598.888 67.75 604.13 86.8044C609.373 105.859 598.081 110.483 598.081 110.483C598.081 110.483 618.641 97.7772 625.497 114.524C632.353 131.27 630.74 138.202 630.74 138.202L452.952 133.586V133.578Z" fill="#93A53B"/>
<path d="M501.973 111.124C501.973 111.124 494.886 97.5965 504.747 95.4447C514.607 93.2928 518.607 95.4447 518.607 95.4447C518.607 95.4447 503.207 82.5336 511.52 68.3907C519.833 54.2477 535.858 65.0069 537.702 70.2386L539.553 75.4622L542.014 78.23C542.014 78.23 543.249 51.176 564.5 45.0325C585.752 38.8809 598.385 55.1757 598.385 55.1757C598.385 55.1757 607.011 66.5509 602.698 85.9175C602.698 85.9175 613.48 76.0781 617.48 86.2213C621.48 96.3645 612.863 98.8203 612.863 98.8203C612.863 98.8203 628.575 92.0609 633.81 100.972C639.044 109.883 637.818 113.571 637.818 113.571L501.973 111.115V111.124Z" fill="#93A53B"/>
<path d="M455.314 140.223C455.314 140.223 448.227 126.696 458.088 124.544C467.948 122.392 471.948 124.544 471.948 124.544C471.948 124.544 456.548 111.633 464.861 97.4898C473.174 83.3468 489.199 94.106 491.043 99.3377L492.895 104.561L495.355 107.329C495.355 107.329 496.59 80.2751 517.841 74.1317C539.093 67.98 551.727 84.2749 551.727 84.2749C551.727 84.2749 560.352 95.65 556.039 115.017C556.039 115.017 566.821 105.177 570.821 115.32C574.821 125.464 566.204 127.919 566.204 127.919C566.204 127.919 581.916 121.16 587.151 130.071C592.385 138.982 591.159 142.67 591.159 142.67L455.314 140.214V140.223Z" fill="#5C8039"/>
<path d="M619.472 141.923C619.472 141.923 612.386 128.396 622.246 126.244C632.106 124.092 636.106 126.244 636.106 126.244C636.106 126.244 620.707 113.333 629.02 99.1898C637.332 85.0469 653.357 95.806 655.201 101.038L657.053 106.261L659.514 109.029C659.514 109.029 660.748 81.9752 682 75.8317C703.251 69.6801 715.885 85.9749 715.885 85.9749C715.885 85.9749 724.51 97.3501 720.198 116.717C720.198 116.717 730.979 106.877 734.98 117.021C738.98 127.164 730.362 129.619 730.362 129.619C730.362 129.619 746.074 122.86 751.309 131.771C756.544 140.683 755.317 144.37 755.317 144.37L619.472 141.914V141.923Z" fill="#5C8039"/>
<path d="M738.321 144.682C738.321 144.682 733.819 136.1 740.083 134.728C746.346 133.356 748.881 134.728 748.881 134.728C748.881 134.728 739.103 126.531 744.379 117.554C749.655 108.577 759.828 115.411 761.005 118.729L762.182 122.047L763.745 123.805C763.745 123.805 764.527 106.631 778.025 102.73C791.523 98.8284 799.54 109.169 799.54 109.169C799.54 109.169 805.013 116.388 802.281 128.683C802.281 128.683 809.129 122.441 811.672 128.88C814.215 135.319 808.742 136.88 808.742 136.88C808.742 136.88 818.717 132.584 822.042 138.243C825.368 143.902 824.586 146.243 824.586 146.243L738.338 144.682H738.321Z" fill="#768B3B"/>
<path d="M785.029 143.787C785.029 143.787 777.943 130.26 787.803 128.108C797.663 125.956 801.663 128.108 801.663 128.108C801.663 128.108 786.264 115.197 794.577 101.054C802.89 86.9112 818.915 97.6704 820.758 102.902L822.61 108.126L825.071 110.894C825.071 110.894 826.306 83.8395 847.557 77.6961C868.808 71.5445 881.442 87.8393 881.442 87.8393C881.442 87.8393 890.068 99.2145 885.755 118.581C885.755 118.581 896.537 108.742 900.537 118.885C904.537 129.028 895.92 131.484 895.92 131.484C895.92 131.484 911.632 124.724 916.866 133.636C922.101 142.547 920.875 146.235 920.875 146.235L785.029 143.779V143.787Z" fill="#93A53B"/>
<path d="M695.777 138.366C695.777 138.366 686.502 112.963 699.407 108.914C712.304 104.873 717.547 108.914 717.547 108.914C717.547 108.914 697.391 84.6609 708.271 58.0996C719.152 31.5384 740.124 51.7509 742.535 61.5656L744.955 71.3803L748.181 76.5792C748.181 76.5792 749.794 25.7646 777.614 14.2169C805.433 2.6693 821.96 33.2714 821.96 33.2714C821.96 33.2714 833.244 54.6337 827.606 91.0178C827.606 91.0178 841.713 72.5383 846.956 91.5928C852.199 110.647 840.907 115.271 840.907 115.271C840.907 115.271 861.467 102.565 868.323 119.312C875.179 136.059 873.565 142.99 873.565 142.99L695.777 138.375V138.366Z" fill="#93A53B"/>
<path d="M744.807 115.912C744.807 115.912 737.72 102.385 747.58 100.233C757.441 98.0811 761.441 100.233 761.441 100.233C761.441 100.233 746.041 87.3219 754.354 73.1789C762.667 59.0359 778.692 69.7951 780.536 75.0268L782.388 80.2504L784.848 83.0182C784.848 83.0182 786.083 55.9642 807.334 49.8208C828.586 43.6691 841.219 59.964 841.219 59.964C841.219 59.964 849.845 71.3391 845.532 90.7057C845.532 90.7057 856.314 80.8663 860.314 91.0096C864.314 101.153 855.697 103.608 855.697 103.608C855.697 103.608 871.409 96.8491 876.644 105.76C881.878 114.672 880.652 118.359 880.652 118.359L744.807 115.904V115.912Z" fill="#93A53B"/>
<path d="M698.148 145.011C698.148 145.011 691.061 131.484 700.922 129.332C710.782 127.18 714.782 129.332 714.782 129.332C714.782 129.332 699.382 116.421 707.695 102.278C716.008 88.135 732.033 98.8942 733.877 104.126L735.729 109.349L738.189 112.117C738.189 112.117 739.424 85.0633 760.675 78.9199C781.927 72.7682 794.56 89.0631 794.56 89.0631C794.56 89.0631 803.186 100.438 798.873 119.805C798.873 119.805 809.655 109.965 813.655 120.109C817.655 130.252 809.038 132.708 809.038 132.708C809.038 132.708 824.75 125.948 829.985 134.859C835.219 143.771 833.993 147.458 833.993 147.458L698.148 145.003V145.011Z" fill="#5C8039"/>
<path d="M862.306 146.711C862.306 146.711 855.22 133.184 865.08 131.032C874.94 128.88 878.94 131.032 878.94 131.032C878.94 131.032 863.541 118.121 871.854 103.978C880.166 89.8351 896.191 100.594 898.035 105.826L899.887 111.05L902.348 113.817C902.348 113.817 903.582 86.7634 924.834 80.6199C946.085 74.4683 958.719 90.7632 958.719 90.7632C958.719 90.7632 967.344 102.138 963.031 121.505C963.031 121.505 973.814 111.666 977.814 121.809C981.814 131.952 973.196 134.408 973.196 134.408C973.196 134.408 988.908 127.648 994.143 136.56C999.378 145.471 998.151 149.158 998.151 149.158L862.306 146.703V146.711Z" fill="#5C8039"/>
<path d="M984.554 148.099C984.554 148.099 980.052 139.516 986.316 138.145C992.579 136.773 995.114 138.145 995.114 138.145C995.114 138.145 985.336 129.948 990.612 120.971C995.888 111.994 1006.06 118.827 1007.24 122.146L1008.41 125.464L1009.98 127.221C1009.98 127.221 1010.76 110.048 1024.26 106.146C1037.76 102.245 1045.77 112.586 1045.77 112.586C1045.77 112.586 1051.25 119.805 1048.51 132.1C1048.51 132.1 1055.36 125.858 1057.9 132.297C1060.45 138.736 1054.97 140.297 1054.97 140.297C1054.97 140.297 1064.95 136.001 1068.28 141.66C1071.6 147.319 1070.82 149.66 1070.82 149.66L984.571 148.099H984.554Z" fill="#768B3B"/>
<path d="M1031.26 147.204C1031.26 147.204 1024.18 133.677 1034.04 131.525C1043.9 129.373 1047.9 131.525 1047.9 131.525C1047.9 131.525 1032.5 118.614 1040.81 104.471C1049.12 90.3279 1065.15 101.087 1066.99 106.319L1068.84 111.542L1071.3 114.31C1071.3 114.31 1072.54 87.2562 1093.79 81.1127C1115.04 74.9611 1127.68 91.2559 1127.68 91.2559C1127.68 91.2559 1136.3 102.631 1131.99 121.998C1131.99 121.998 1142.77 112.158 1146.77 122.302C1150.77 132.445 1142.15 134.9 1142.15 134.9C1142.15 134.9 1157.87 128.141 1163.1 137.052C1168.33 145.964 1167.11 149.651 1167.11 149.651L1031.26 147.196V147.204Z" fill="#93A53B"/>
<path d="M942.019 141.775C942.019 141.775 932.743 116.372 945.649 112.323C958.546 108.282 963.789 112.323 963.789 112.323C963.789 112.323 943.632 88.0693 954.513 61.5081C965.394 34.9469 986.365 55.1594 988.777 64.974L991.197 74.7887L994.423 79.9876C994.423 79.9876 996.036 29.173 1023.86 17.6254C1051.67 6.07775 1068.2 36.6798 1068.2 36.6798C1068.2 36.6798 1079.49 58.0422 1073.85 94.4263C1073.85 94.4263 1087.95 75.9468 1093.2 95.0012C1098.44 114.056 1087.15 118.68 1087.15 118.68C1087.15 118.68 1107.71 105.974 1114.56 122.72C1121.42 139.467 1119.81 146.399 1119.81 146.399L942.019 141.783V141.775Z" fill="#93A53B"/>
<path d="M991.04 119.328C991.04 119.328 983.953 105.801 993.814 103.65C1003.67 101.498 1007.67 103.65 1007.67 103.65C1007.67 103.65 992.275 90.7386 1000.59 76.5956C1008.9 62.4526 1024.93 73.2118 1026.77 78.4436L1028.62 83.6671L1031.08 86.4349C1031.08 86.4349 1032.32 59.3809 1053.57 53.2375C1074.82 47.0859 1087.45 63.3807 1087.45 63.3807C1087.45 63.3807 1096.08 74.7559 1091.77 94.1224C1091.77 94.1224 1102.55 84.2831 1106.55 94.4263C1110.55 104.57 1101.93 107.025 1101.93 107.025C1101.93 107.025 1117.64 100.266 1122.88 109.177C1128.11 118.088 1126.89 121.776 1126.89 121.776L991.04 119.32V119.328Z" fill="#93A53B"/>
<path d="M944.381 148.419C944.381 148.419 937.295 134.892 947.155 132.74C957.015 130.589 961.015 132.74 961.015 132.74C961.015 132.74 945.616 119.829 953.928 105.686C962.241 91.5434 978.266 102.303 980.11 107.534L981.962 112.758L984.423 115.526C984.423 115.526 985.657 88.4717 1006.91 82.3283C1028.16 76.1767 1040.79 92.4715 1040.79 92.4715C1040.79 92.4715 1049.42 103.847 1045.11 123.213C1045.11 123.213 1055.89 113.374 1059.89 123.517C1063.89 133.66 1055.27 136.116 1055.27 136.116C1055.27 136.116 1070.98 129.357 1076.22 138.268C1081.45 147.179 1080.23 150.867 1080.23 150.867L944.381 148.411V148.419Z" fill="#5C8039"/>
<path d="M1108.54 150.128C1108.54 150.128 1101.45 136.601 1111.31 134.449C1121.17 132.297 1125.17 134.449 1125.17 134.449C1125.17 134.449 1109.77 121.538 1118.09 107.395C1126.4 93.2518 1142.42 104.011 1144.27 109.243L1146.12 114.466L1148.58 117.234C1148.58 117.234 1149.82 90.1801 1171.07 84.0367C1192.32 77.8851 1204.95 94.1799 1204.95 94.1799C1204.95 94.1799 1213.58 105.555 1209.26 124.922C1209.26 124.922 1220.05 115.082 1224.05 125.225C1228.05 135.369 1219.43 137.824 1219.43 137.824C1219.43 137.824 1235.14 131.065 1240.38 139.976C1245.61 148.887 1244.38 152.575 1244.38 152.575L1108.54 150.119V150.128Z" fill="#5C8039"/>
<path d="M1188.05 151.507C1188.05 151.507 1183.54 142.925 1189.81 141.553C1196.07 140.182 1198.61 141.553 1198.61 141.553C1198.61 141.553 1188.83 133.356 1194.1 124.38C1199.38 115.403 1209.55 122.236 1210.73 125.554L1211.91 128.872L1213.47 130.63C1213.47 130.63 1214.25 113.456 1227.75 109.555C1241.25 105.654 1249.27 115.994 1249.27 115.994C1249.27 115.994 1254.74 123.213 1252.01 135.508C1252.01 135.508 1258.85 129.266 1261.4 135.705C1263.94 142.145 1258.47 143.705 1258.47 143.705C1258.47 143.705 1268.44 139.41 1271.77 145.068C1275.09 150.727 1274.31 153.068 1274.31 153.068L1188.06 151.507H1188.05Z" fill="#768B3B"/>
<path d="M1234.75 150.612C1234.75 150.612 1227.67 137.085 1237.53 134.933C1247.39 132.781 1251.39 134.933 1251.39 134.933C1251.39 134.933 1235.99 122.022 1244.3 107.879C1252.61 93.7363 1268.64 104.496 1270.48 109.727L1272.34 114.951L1274.8 117.719C1274.8 117.719 1276.03 90.6646 1297.28 84.5212C1318.53 78.3696 1331.17 94.6644 1331.17 94.6644C1331.17 94.6644 1339.79 106.04 1335.48 125.406C1335.48 125.406 1346.26 115.567 1350.26 125.71C1354.26 135.853 1345.64 138.309 1345.64 138.309C1345.64 138.309 1361.36 131.55 1366.59 140.461C1371.83 149.372 1370.6 153.06 1370.6 153.06L1234.75 150.604V150.612Z" fill="#93A53B"/>
<path d="M1145.5 145.192C1145.5 145.192 1136.23 119.788 1149.13 115.739C1162.03 111.698 1167.27 115.739 1167.27 115.739C1167.27 115.739 1147.12 91.486 1158 64.9247C1168.88 38.3635 1189.85 58.576 1192.26 68.3907L1194.68 78.2053L1197.91 83.4042C1197.91 83.4042 1199.52 32.5897 1227.34 21.042C1255.16 9.49437 1271.69 40.0965 1271.69 40.0965C1271.69 40.0965 1282.97 61.4588 1277.33 97.8429C1277.33 97.8429 1291.44 79.3634 1296.68 98.4178C1301.92 117.472 1290.63 122.096 1290.63 122.096C1290.63 122.096 1311.19 109.391 1318.05 126.137C1324.9 142.884 1323.29 149.816 1323.29 149.816L1145.5 145.2V145.192Z" fill="#93A53B"/>
<path d="M1194.53 122.737C1194.53 122.737 1187.45 109.21 1197.31 107.058C1207.17 104.906 1211.17 107.058 1211.17 107.058C1211.17 107.058 1195.77 94.1471 1204.08 80.0041C1212.39 65.8611 1228.42 76.6203 1230.26 81.852L1232.11 87.0756L1234.57 89.8434C1234.57 89.8434 1235.81 62.7894 1257.06 56.6459C1278.31 50.4943 1290.94 66.7892 1290.94 66.7892C1290.94 66.7892 1299.57 78.1643 1295.26 97.5309C1295.26 97.5309 1306.04 87.6915 1310.04 97.8347C1314.04 107.978 1305.42 110.434 1305.42 110.434C1305.42 110.434 1321.13 103.674 1326.37 112.586C1331.6 121.497 1330.38 125.184 1330.38 125.184L1194.53 122.729V122.737Z" fill="#93A53B"/>
<path d="M1147.87 151.836C1147.87 151.836 1140.79 138.309 1150.65 136.157C1160.51 134.005 1164.51 136.157 1164.51 136.157C1164.51 136.157 1149.11 123.246 1157.42 109.103C1165.73 94.9601 1181.76 105.719 1183.6 110.951L1185.45 116.175L1187.91 118.942C1187.91 118.942 1189.15 91.8884 1210.4 85.7449C1231.65 79.5933 1244.29 95.8882 1244.29 95.8882C1244.29 95.8882 1252.91 107.263 1248.6 126.63C1248.6 126.63 1259.38 116.791 1263.38 126.934C1267.38 137.077 1258.76 139.533 1258.76 139.533C1258.76 139.533 1274.48 132.773 1279.71 141.685C1284.94 150.596 1283.72 154.283 1283.72 154.283L1147.87 151.828V151.836Z" fill="#5C8039"/>
<path d="M1312.03 153.536C1312.03 153.536 1304.94 140.009 1314.81 137.857C1324.67 135.705 1328.67 137.857 1328.67 137.857C1328.67 137.857 1313.27 124.946 1321.58 110.803C1329.89 96.6603 1345.92 107.419 1347.76 112.651L1349.61 117.875L1352.07 120.643C1352.07 120.643 1353.31 93.5886 1374.56 87.4451C1395.81 81.2935 1408.44 97.5883 1408.44 97.5883C1408.44 97.5883 1417.07 108.964 1412.76 128.33C1412.76 128.33 1423.54 118.491 1427.54 128.634C1431.54 138.777 1422.92 141.233 1422.92 141.233C1422.92 141.233 1438.63 134.473 1443.87 143.385C1449.1 152.296 1447.88 155.984 1447.88 155.984L1312.03 153.528V153.536Z" fill="#5C8039"/>
</g>
<defs>
<clipPath id="clip0_62_2">
<rect width="1448" height="156" fill="white"/>
</clipPath>
</defs>
</svg>
