<svg width="576" height="222" viewBox="0 0 576 222" fill="none" xmlns="http://www.w3.org/2000/svg">
<path d="M177.15 106.012C177.15 106.012 214.052 -19.5246 341.377 2.62758C468.702 24.7797 465.008 100.472 465.008 100.472C465.008 100.472 544.356 107.856 559.117 107.856C573.878 107.856 577.572 154.012 573.878 172.468C570.184 190.925 481.619 176.164 481.619 176.164C481.619 176.164 457.21 110.088 425.628 141.693C394.047 173.297 415.576 179.039 415.576 179.039L230.372 173.29C230.372 173.29 213.142 134.51 182.993 140.252C152.845 145.993 162.897 179.031 162.897 179.031L102.6 177.598L91.115 100.031L177.15 106.004V106.012Z" fill="#185DA9"/>
<path d="M198.993 221.417C220.865 221.417 238.596 205.428 238.596 185.706C238.596 165.983 220.865 149.995 198.993 149.995C177.12 149.995 159.389 165.983 159.389 185.706C159.389 205.428 177.12 221.417 198.993 221.417Z" fill="#83262F"/>
<path d="M441.307 219.214C463.179 219.214 480.91 203.226 480.91 183.503C480.91 163.781 463.179 147.793 441.307 147.793C419.435 147.793 401.704 163.781 401.704 183.503C401.704 203.226 419.435 219.214 441.307 219.214Z" fill="#83262F"/>
<path opacity="0.61" d="M354.033 15.7158L358.697 95.0216L438.74 99.688C438.74 99.688 434.852 28.931 354.033 15.7158Z" fill="#F4E9C8"/>
<path d="M89.0552 162.815C89.0552 162.815 72.6751 159.694 72.6751 150.324C72.6751 140.954 39.9148 137.833 39.9148 146.419C39.9148 155.005 70.3394 184.661 70.3394 184.661L92.9656 175.298L89.0627 162.807L89.0552 162.815Z" fill="#E9883F"/>
<path d="M76.4585 107.804C76.4585 107.804 60.0784 104.683 60.0784 95.3128C60.0784 85.9428 27.3181 82.8219 27.3181 91.408C27.3181 99.9941 57.7427 129.65 57.7427 129.65L80.3689 120.287L76.466 107.796L76.4585 107.804Z" fill="#E9883F"/>
<path d="M54.7876 62.5811C54.7876 62.5811 35.206 45.7374 42.4372 33.1643C49.6683 20.5913 8.09482 -8.9076 1.46814 2.62019C-5.15855 14.148 12.7962 77.4538 12.7962 77.4538L50.3922 82.359L54.7951 62.5811H54.7876Z" fill="#E9883F"/>
</svg>
