<svg width="485" height="222" viewBox="0 0 485 222" fill="none" xmlns="http://www.w3.org/2000/svg">
<path d="M86.035 106.588C86.035 106.588 122.944 -18.9487 250.262 3.2035C377.579 25.3557 373.893 101.048 373.893 101.048C373.893 101.048 453.241 108.432 468.002 108.432C482.763 108.432 486.457 154.588 482.763 173.044C479.069 191.501 390.504 176.74 390.504 176.74C390.504 176.74 366.095 110.664 334.513 142.269C302.932 173.873 324.461 179.615 324.461 179.615L139.257 173.866C139.257 173.866 122.027 135.086 91.8781 140.828C61.7297 146.569 71.7816 179.607 71.7816 179.607L11.4848 178.174L0 100.615L86.035 106.588Z" fill="#185DA9"/>
<path d="M107.885 222C129.757 222 147.489 206.012 147.489 186.289C147.489 166.567 129.757 150.578 107.885 150.578C86.0128 150.578 68.2817 166.567 68.2817 186.289C68.2817 206.012 86.0128 222 107.885 222Z" fill="#83262F"/>
<path d="M350.199 219.79C372.072 219.79 389.803 203.802 389.803 184.079C389.803 164.357 372.072 148.368 350.199 148.368C328.327 148.368 310.596 164.357 310.596 184.079C310.596 203.802 328.327 219.79 350.199 219.79Z" fill="#83262F"/>
<path opacity="0.61" d="M262.926 16.2917L267.59 95.5976L347.632 100.264C347.632 100.264 343.744 29.5069 262.926 16.2917Z" fill="#F4E9C8"/>
</svg>
