<svg width="105" height="227" viewBox="0 0 105 227" fill="none" xmlns="http://www.w3.org/2000/svg">
<path d="M43.3366 135.445L45.3198 226.97H57.6692L53.7029 85.965C53.7029 85.965 74.1952 82.6242 80.9859 54.2427C80.9859 54.2427 105.745 36.8465 104.934 16.8621L99.9457 15.2669C99.9457 15.2669 90.5709 36.064 86.3643 36.8766L85.553 0.489258L78.552 1.90382L77.3501 46.6883C77.3501 46.6883 64.1894 71.8795 56.9781 73.4747L55.9865 47.6815L43.3967 47.8922V124.429C43.3967 124.429 11.4565 110.253 8.21138 97.2815L0.939941 98.0941C0.939941 98.0941 18.9082 127.499 43.2765 135.475L43.3366 135.445Z" fill="#966A4C"/>
</svg>
