<svg width="173" height="275" viewBox="0 0 173 275" fill="none" xmlns="http://www.w3.org/2000/svg">
<path d="M85.2621 154.762C73.9944 158.494 67.5642 166.079 52.781 168.697C34.0015 171.737 6.62838 163.52 0.979499 144.078C-1.45433 132.159 10.234 124.725 17.1149 117.592C22.944 109.105 16.574 102.875 14.681 89.6621C6.53823 49.6029 31.4474 23.7194 66.9032 10.7475C84.0301 4.00579 101.758 -3.54858 119.786 2.29025C165.999 17.2786 189.436 74.2223 159.899 117.743C151.967 129.751 141.09 139.443 128.019 145.191C112.365 152.144 99.1439 150.789 85.6226 154.672L85.2621 154.792V154.762Z" fill="#AAC87F"/>
<path d="M81.2658 183.475L83.249 275H95.5984L91.6321 133.995C91.6321 133.995 112.124 130.654 118.915 102.273C118.915 102.273 143.674 84.8767 142.863 64.8922L137.875 63.2971C137.875 63.2971 128.5 84.0942 124.293 84.9068L123.482 48.5194L116.481 49.934L115.279 94.7184C115.279 94.7184 102.119 119.91 94.9073 121.505L93.9157 95.7116L81.3259 95.9223V172.459C81.3259 172.459 49.3857 158.283 46.1406 145.312L38.8691 146.124C38.8691 146.124 56.8374 175.529 81.2057 183.505L81.2658 183.475Z" fill="#966A4C"/>
<path d="M52.7509 38.2262C52.6006 37.5942 52.4504 36.9923 52.3302 36.3602L52.6006 38.3466C52.5405 37.835 52.5105 37.3534 52.5406 36.8418L52.2701 38.8282C52.3302 38.4068 52.4203 38.0156 52.6006 37.5942L51.8494 39.4C51.9997 39.1292 52.1499 38.8884 52.3302 38.6476L51.1584 40.1825C51.2785 40.0321 51.4288 39.8816 51.579 39.7612L50.0466 40.935C50.287 40.7544 50.4973 40.634 50.7978 40.5136L48.995 41.266C49.1752 41.2058 49.3555 41.1457 49.5659 41.1457L47.5827 41.4165C47.7931 41.4165 48.0034 41.4165 48.2137 41.4466L46.2306 41.1758C46.4409 41.2059 46.6212 41.266 46.8315 41.3563L45.0287 40.6039C45.3292 40.7544 45.5696 40.9049 45.84 41.1156L44.3076 39.9418C45.0888 40.6039 45.7499 41.3864 46.3809 42.1991L45.209 40.6641C46.0804 41.8078 46.8315 42.9816 47.4325 44.3058L46.6813 42.5C47.0419 43.3728 47.2822 44.2457 47.4325 45.1486L47.1621 43.1622C47.2522 43.8845 47.2522 44.5466 47.1621 45.269L47.4325 43.2825C47.2222 44.7272 46.7414 46.0816 46.3809 47.466C46.0804 48.6398 45.9001 49.8738 45.8099 51.1078C45.7198 52.3719 45.9602 53.5758 46.1405 54.8699L45.8701 52.8835C45.9302 53.3651 45.9902 53.8466 45.9301 54.3282L46.2006 52.3418L46.1405 52.5825L46.8917 50.7767C46.8316 50.9272 46.7715 51.0777 46.6513 51.1981L47.8231 49.6631L47.6128 49.8437L49.1452 48.6699L48.9048 48.7903L50.7077 48.0379L50.4372 48.0981L52.4203 47.8272C50.6475 48.0078 48.5443 48.068 46.7715 47.8272L48.7546 48.0981L48.4541 48.0078L50.2569 48.7602C50.0466 48.7 49.8663 48.5796 49.7161 48.4592L51.2485 49.633L51.0382 49.3923L52.21 50.9272C52.0297 50.6563 51.8795 50.3855 51.7293 50.0845L52.4804 51.8903C51.7593 50.0243 51.2485 48.068 50.9781 46.0816L51.2485 48.068C50.918 45.6602 50.918 43.2825 51.2485 40.8748L50.9781 42.8612C51.2485 40.8748 51.7293 38.9185 52.4504 37.0525L51.6992 38.8583C51.8194 38.5573 51.9696 38.3165 52.1499 38.0457L50.9781 39.5806L51.1884 39.3699L49.656 40.5437C49.656 40.5437 49.9565 40.3029 50.1668 40.2427L48.364 40.9952L48.6945 40.935L46.7114 41.2059H47.0419C46.3809 41.1457 45.7198 41.0554 45.0588 40.9651C45.2691 40.9952 45.4795 41.0855 45.6898 41.1758L43.8869 40.4233C44.4578 40.6942 44.9987 41.0253 45.5095 41.4165L43.9771 40.2427C44.6381 40.7845 45.2391 41.3563 45.7799 42.0185L44.6081 40.4835C45.179 41.2359 45.6597 42.0486 46.0203 42.9515L45.2691 41.1457C45.5696 41.9282 45.7799 42.7408 45.9001 43.5835C46.1405 45.2991 47.9433 47.2554 49.3556 48.068C50.9781 49.001 53.3518 49.4224 55.1547 48.8204C56.9575 48.2185 58.7303 47.1049 59.6317 45.3592L60.3829 43.5534C60.7435 42.2292 60.7435 40.8748 60.3829 39.5505C59.7219 34.8554 56.5969 30.8224 52.811 28.1738C49.6861 25.9767 45.3893 25.3146 42.0841 27.4816C39.1995 29.3777 37.9676 32.4476 37.1263 35.6379C35.9845 40.0321 35.7742 44.5165 36.3751 49.001C36.6455 51.1078 37.0662 53.1544 37.7573 55.1408C38.3883 56.9165 39.1094 58.5418 40.4014 59.9563C42.1442 61.8224 44.578 62.635 47.0719 62.8156C48.0935 62.8758 49.1452 62.8156 50.1969 62.8156C51.6992 62.8156 53.2316 62.8156 54.704 62.4243C57.5284 61.702 60.0223 59.1738 60.6833 56.3146C61.1641 54.2078 60.8937 52.5826 60.6233 50.4758L60.8937 52.4622C60.8336 51.8301 60.8636 51.2583 60.9237 50.6262L60.6533 52.6126C60.8937 51.1379 61.4345 49.7233 61.765 48.2486C62.366 45.6903 62.366 43.433 61.9453 40.8748C61.3143 37.0825 59.0308 33.7719 56.627 30.8525C55.3049 29.2272 53.6823 27.933 51.7593 27.1204C48.7846 25.8563 45.6297 26.0369 42.7752 27.6622C40.4015 29.0165 38.5085 31.6952 37.9376 34.3437C37.3667 36.9923 37.6972 39.5204 38.3282 42.1088C39.2897 45.9311 43.7667 48.6097 47.5827 47.3758C51.3987 46.1418 53.8626 42.1991 52.841 38.1058L52.7509 38.2262Z" fill="#AAC87F"/>
<path d="M36.9459 47.0446C36.4952 42.1087 41.7835 37.7747 46.0202 35.9087C56.2663 31.5446 51.2184 50.0242 46.4709 52.5524C42.6549 55.1708 37.5469 51.9203 37.006 47.6164L36.9459 47.0446Z" fill="#FEDB74"/>
<path d="M76.8488 27.0602C76.398 22.1243 81.6864 17.7903 85.923 15.9243C96.1692 11.5602 91.1212 30.0398 86.3737 32.568C82.5577 35.1864 77.4497 31.9359 76.9089 27.6321L76.8488 27.0602Z" fill="#FEDB74"/>
<path d="M29.5543 84.8466C29.1036 79.9107 34.3919 75.5767 38.6286 73.7107C48.8747 69.3466 43.8268 87.8262 39.0793 90.3544C35.2633 92.9728 30.1553 89.7223 29.6144 85.4184L29.5543 84.8466Z" fill="#FEDB74"/>
<path d="M64.2589 83.9738C63.8082 79.0379 69.0965 74.7039 73.3332 72.8379C83.5793 68.4738 78.5314 86.9534 73.7839 89.4816C69.9679 92.1 64.8599 88.8495 64.319 84.5456L64.2589 83.9738Z" fill="#FEDB74"/>
<path d="M78.1407 61.3709C77.69 56.435 82.9784 52.101 87.215 50.235C97.4611 45.8709 92.4132 64.3505 87.6658 66.8787C83.8498 69.4971 78.7417 66.2466 78.2009 61.9427L78.1407 61.3709Z" fill="#FEDB74"/>
<path d="M125.886 37.4738C125.435 32.5379 130.723 28.2039 134.96 26.3379C145.206 21.9738 140.158 40.4534 135.411 42.9816C131.595 45.6 126.487 42.3495 125.946 38.0456L125.886 37.4738Z" fill="#FEDB74"/>
<path d="M40.4015 119.187C39.9508 114.251 45.2391 109.918 49.4758 108.051C59.7219 103.687 54.6739 122.167 49.9265 124.695C46.1105 127.314 41.0024 124.063 40.4616 119.759L40.4015 119.187Z" fill="#FEDB74"/>
<path d="M13.0885 143.506C12.6378 138.57 17.9261 134.236 22.1628 132.37C32.4089 128.006 27.3609 146.485 22.6135 149.014C18.7975 151.632 13.6894 148.382 13.1486 144.078L13.0885 143.506Z" fill="#FEDB74"/>
<path d="M130.213 118.736C129.762 113.8 135.05 109.466 139.287 107.6C149.533 103.236 144.485 121.716 139.738 124.244C135.922 126.862 130.814 123.612 130.273 119.308L130.213 118.736Z" fill="#FEDB74"/>
</svg>
