<svg width="173" height="275" viewBox="0 0 173 275" fill="none" xmlns="http://www.w3.org/2000/svg">
<path d="M84.6249 154.579C73.3571 158.311 66.927 165.895 52.1438 168.514C33.3642 171.553 5.99118 163.337 0.342291 143.894C-2.09154 131.976 9.59685 124.542 16.4777 117.409C22.3068 108.921 15.9368 102.691 14.0438 89.4786C5.90103 49.4194 30.8102 23.5359 66.266 10.5641C83.3929 3.82232 101.121 -3.73205 119.149 2.10678C165.362 17.0951 188.799 74.0388 159.262 117.559C151.33 129.568 140.453 139.259 127.382 145.008C111.727 151.96 98.5067 150.606 84.9854 154.488L84.6249 154.609V154.579Z" fill="#AAC87F"/>
<path d="M80.6286 183.291L82.6117 274.817H94.9612L90.9949 133.812C90.9949 133.812 111.487 130.471 118.278 102.089C118.278 102.089 143.037 84.6932 142.226 64.7088L137.238 63.1136C137.238 63.1136 127.863 83.9107 123.656 84.7233L122.845 48.3359L115.844 49.7505L114.642 94.535C114.642 94.535 101.481 119.726 94.2701 121.321L93.2785 95.5282L80.6887 95.7389V172.276C80.6887 172.276 48.7485 158.1 45.5034 145.128L38.2319 145.941C38.2319 145.941 56.2002 175.346 80.5685 183.321L80.6286 183.291Z" fill="#966A4C"/>
</svg>
