<svg width="754" height="1121" viewBox="0 0 754 1121" fill="none" xmlns="http://www.w3.org/2000/svg">
<g clip-path="url(#clip0_34_92)" filter="url(#filter0_d_34_92)">
<path d="M749.11 415.36H4.63V1112.19H749.11V415.36Z" fill="#FBD596"/>
<path d="M4.40002 415.36L360.33 0.609985L749.1 415.36" fill="#90C24B"/>
<path d="M38.58 409.61L359.74 24.9301L716.55 409.61" fill="#BDDB88"/>
<path d="M369.02 430H18V751.3H369.02V430Z" fill="#F3EAE5"/>
<path d="M362.27 774.21H21.73V1106.91H362.27V774.21Z" fill="#EED12C"/>
<path d="M728.25 774.21H414.45V1106.91H728.25V774.21Z" fill="#E9883F"/>
<path d="M732.8 769H419V1101.7H732.8V769Z" fill="#E9883F"/>
<path d="M729.37 430.51H414.2V749.96H729.37V430.51Z" fill="#91D2DE"/>
<path d="M727.47 674.51H691.27V751.36H727.47V674.51Z" fill="#ECC341"/>
<path d="M697.03 706.66H559.66C555.291 706.66 551.75 710.201 551.75 714.57V742.1C551.75 746.468 555.291 750.01 559.66 750.01H697.03C701.399 750.01 704.94 746.468 704.94 742.1V714.57C704.94 710.201 701.399 706.66 697.03 706.66Z" fill="#EA7D38"/>
<path d="M700.57 733.03H557.7C554.85 733.03 552.54 735.34 552.54 738.19V746.33C552.54 749.18 554.85 751.49 557.7 751.49H700.57C703.42 751.49 705.73 749.18 705.73 746.33V738.19C705.73 735.34 703.42 733.03 700.57 733.03Z" fill="#ECC341"/>
<path d="M689.51 679.93H669.28C667.689 679.93 666.4 681.219 666.4 682.81V703.52C666.4 705.111 667.689 706.4 669.28 706.4H689.51C691.101 706.4 692.39 705.111 692.39 703.52V682.81C692.39 681.219 691.101 679.93 689.51 679.93Z" fill="#FEE600"/>
<path d="M673.827 522H546.173C536.136 522 528 522.341 528 522.762V528.238C528 528.659 536.136 529 546.173 529H673.827C683.864 529 692 528.659 692 528.238V522.762C692 522.341 683.864 522 673.827 522Z" fill="#FEE600"/>
<path d="M332.07 350.03H183.93C179.942 350.03 176.71 353.263 176.71 357.25V369.28C176.71 373.268 179.942 376.5 183.93 376.5H332.07C336.057 376.5 339.29 373.268 339.29 369.28V357.25C339.29 353.263 336.057 350.03 332.07 350.03Z" fill="#FEE600"/>
<path d="M235.18 381.43H187.36C185.013 381.43 183.11 383.333 183.11 385.68V403.65C183.11 405.997 185.013 407.9 187.36 407.9H235.18C237.527 407.9 239.43 405.997 239.43 403.65V385.68C239.43 383.333 237.527 381.43 235.18 381.43Z" fill="#FEE600"/>
<path d="M331.72 381.43H283.9C281.553 381.43 279.65 383.333 279.65 385.68V403.65C279.65 405.997 281.553 407.9 283.9 407.9H331.72C334.067 407.9 335.97 405.997 335.97 403.65V385.68C335.97 383.333 334.067 381.43 331.72 381.43Z" fill="#FEE600"/>
<path d="M535.87 679.57H493.3V750.29H535.87V679.57Z" fill="#EA7D38"/>
<path d="M533.51 697.3H495.58C494.299 697.3 493.26 698.339 493.26 699.62C493.26 700.901 494.299 701.94 495.58 701.94H533.51C534.791 701.94 535.83 700.901 535.83 699.62C535.83 698.339 534.791 697.3 533.51 697.3Z" fill="#83262F"/>
<path d="M515.68 686.89H511.26C510.774 686.89 510.38 687.284 510.38 687.77V690.65C510.38 691.136 510.774 691.53 511.26 691.53H515.68C516.166 691.53 516.56 691.136 516.56 690.65V687.77C516.56 687.284 516.166 686.89 515.68 686.89Z" fill="#83262F"/>
<path d="M516.15 707.89H511.73C511.244 707.89 510.85 708.284 510.85 708.77V711.65C510.85 712.136 511.244 712.53 511.73 712.53H516.15C516.636 712.53 517.03 712.136 517.03 711.65V708.77C517.03 708.284 516.636 707.89 516.15 707.89Z" fill="#83262F"/>
<path d="M516.62 730.32H512.2C511.714 730.32 511.32 730.714 511.32 731.2V734.08C511.32 734.566 511.714 734.96 512.2 734.96H516.62C517.106 734.96 517.5 734.566 517.5 734.08V731.2C517.5 730.714 517.106 730.32 516.62 730.32Z" fill="#83262F"/>
<path d="M533.64 718.68H495.71C494.429 718.68 493.39 719.719 493.39 721C493.39 722.281 494.429 723.32 495.71 723.32H533.64C534.921 723.32 535.96 722.281 535.96 721C535.96 719.719 534.921 718.68 533.64 718.68Z" fill="#83262F"/>
<path d="M553.82 729.33C553.89 729.45 556.61 727.59 556.66 727.69C556.72 727.79 564.4 729.22 564.47 729.33C564.54 729.44 567.26 727.61 567.31 727.69C567.36 727.78 575.68 729.22 575.75 729.33C575.82 729.44 578.55 727.61 578.59 727.69C578.66 727.82 586.19 729.2 586.27 729.33C586.36 729.49 589.04 727.57 589.11 727.69C589.18 727.81 597.72 729.2 597.8 729.33C597.86 729.43 600.57 727.57 600.64 727.69C600.71 727.81 608.1 729.25 608.14 729.33C608.23 729.48 610.92 727.58 610.98 727.69C611.04 727.8 619.12 729.25 619.16 729.33C619.25 729.49 621.94 727.58 622 727.69C622.06 727.8 629.49 729.23 629.55 729.33C629.62 729.44 632.34 727.59 632.39 727.69C632.44 727.79 639.44 729.26 639.48 729.33C639.53 729.41 642.26 727.57 642.32 727.69C642.36 727.76 650.19 729.23 650.25 729.33C650.34 729.48 653 727.53 653.09 727.69C653.14 727.78 660.22 729.26 660.26 729.33C660.31 729.42 663.04 727.59 663.1 727.69C663.16 727.8 671.7 729.21 671.77 729.33C671.86 729.49 674.55 727.59 674.61 727.69C674.68 727.8 682.29 729.2 682.37 729.33C682.43 729.43 685.16 727.6 685.21 727.69C685.28 727.8 692.24 729.26 692.28 729.33C692.33 729.41 695.05 727.56 695.12 727.69C695.19 727.81 702 729.26 702.04 729.33C702.1 729.43 702.89 728.74 702.93 728.82" stroke="#83262F" stroke-width="3.2" stroke-linecap="round" stroke-linejoin="round"/>
<path d="M291.5 1036.65H185.7C167.563 1036.65 152.86 1051.35 152.86 1069.49V1077.46C152.86 1095.6 167.563 1110.3 185.7 1110.3H291.5C309.637 1110.3 324.34 1095.6 324.34 1077.46V1069.49C324.34 1051.35 309.637 1036.65 291.5 1036.65Z" fill="#91D2DE"/>
<path d="M179.16 1089.97V1031.83C179.16 1019.71 169.333 1009.88 157.21 1009.88H145.81C133.687 1009.88 123.86 1019.71 123.86 1031.83V1089.97C123.86 1102.09 133.687 1111.92 145.81 1111.92H157.21C169.333 1111.92 179.16 1102.09 179.16 1089.97Z" fill="#91D2DE"/>
<path d="M116.09 1083.44V1032.54C116.09 1018.42 104.642 1006.97 90.52 1006.97H66.63C52.5081 1006.97 41.0601 1018.42 41.0601 1032.54V1083.44C41.0601 1097.56 52.5081 1109.01 66.63 1109.01H90.52C104.642 1109.01 116.09 1097.56 116.09 1083.44Z" fill="#91D2DE"/>
<path d="M82.2501 1081.56L82.2501 979.99C82.2501 963.891 69.1991 950.84 53.1 950.84H49.16C33.0609 950.84 20.01 963.891 20.01 979.99L20.01 1081.56C20.01 1097.66 33.0609 1110.71 49.16 1110.71H53.1C69.1991 1110.71 82.2501 1097.66 82.2501 1081.56Z" fill="#91D2DE"/>
<path d="M350.77 1088.89V1034.19C350.77 1022.33 341.158 1012.72 329.3 1012.72H316.94C305.083 1012.72 295.47 1022.33 295.47 1034.19V1088.89C295.47 1100.75 305.083 1110.36 316.94 1110.36H329.3C341.158 1110.36 350.77 1100.75 350.77 1088.89Z" fill="#91D2DE"/>
<path d="M292.3 199.5L328.39 122.55C328.39 106.65 341.28 93.76 357.18 93.76H374.83C390.73 93.76 403.62 106.65 403.62 122.55L441.05 202.52C441.05 218.42 390.73 222.76 374.83 222.76H357.18C341.28 222.76 292.29 215.4 292.29 199.5H292.3Z" fill="#91D2DE"/>
<path d="M697.21 687.47H684.01C682.662 687.47 681.57 688.562 681.57 689.91V703.44C681.57 704.788 682.662 705.88 684.01 705.88H697.21C698.558 705.88 699.65 704.788 699.65 703.44V689.91C699.65 688.562 698.558 687.47 697.21 687.47Z" fill="#EA7D38"/>
<path d="M290.64 1064.54H187.17C184.177 1064.54 181.75 1066.97 181.75 1069.96V1072.4C181.75 1075.39 184.177 1077.82 187.17 1077.82H290.64C293.633 1077.82 296.06 1075.39 296.06 1072.4V1069.96C296.06 1066.97 293.633 1064.54 290.64 1064.54Z" fill="#EA7D38"/>
<path d="M338.9 1088.18V1045.25C338.9 1043.27 337.293 1041.66 335.31 1041.66H329.21C327.227 1041.66 325.62 1043.27 325.62 1045.25V1088.18C325.62 1090.16 327.227 1091.77 329.21 1091.77H335.31C337.293 1091.77 338.9 1090.16 338.9 1088.18Z" fill="#EA7D38"/>
<path d="M155.21 1080.33V1037.4C155.21 1035.42 153.603 1033.81 151.62 1033.81H145.52C143.537 1033.81 141.93 1035.42 141.93 1037.4V1080.33C141.93 1082.31 143.537 1083.92 145.52 1083.92H151.62C153.603 1083.92 155.21 1082.31 155.21 1080.33Z" fill="#EA7D38"/>
<path d="M85.4148 1019.45L108.449 1023.21C109.959 1023.46 111.383 1022.43 111.63 1020.92L112.931 1012.96C113.178 1011.45 112.154 1010.02 110.644 1009.78L87.6096 1006.01C86.0998 1005.77 84.6758 1006.79 84.4291 1008.3L83.1278 1016.27C82.8811 1017.78 83.905 1019.2 85.4148 1019.45Z" fill="#EA7D38"/>
<path d="M83.46 1024.26V1088.34C83.46 1090.78 85.4345 1092.75 87.8701 1092.75H92.66C95.0955 1092.75 97.07 1090.78 97.07 1088.34V1024.26C97.07 1021.82 95.0955 1019.85 92.66 1019.85H87.8701C85.4345 1019.85 83.46 1021.82 83.46 1024.26Z" fill="#EA7D38"/>
<path d="M278.49 819.86H99.59V939.95H278.49V819.86Z" fill="#E75124"/>
<path d="M266.85 826.77H105.84V934.85H266.85V826.77Z" fill="#83262F"/>
<path d="M323.9 248.86H189.46V353.24H323.9V248.86Z" fill="#E75124"/>
<path d="M315.15 254.86H194.15V348.8H315.15V254.86Z" fill="#83262F"/>
<path d="M719.48 865.81H577.55V985.9H719.48V865.81Z" fill="#91D2DE"/>
<path d="M307.38 499.1H198.63V591.12H307.38V499.1Z" fill="#EED12C"/>
<path d="M299.16 507.15H207.44V584.76H299.16V507.15Z" fill="#91D2DE"/>
<path d="M678.51 528.58H536.58V648.67H678.51V528.58Z" fill="#EA7D38"/>
<path d="M691.4 1037.42H625.46V1046.15H691.4V1037.42Z" fill="#EED12C"/>
<path d="M719.72 977.11H577.03V985.84H719.72V977.11Z" fill="#EED12C"/>
<path d="M634.5 1105.8V1039.86H625.77V1105.8H634.5Z" fill="#EED12C"/>
<path d="M571.99 1070.66V1026.38H566.13V1070.66H571.99Z" fill="#EED12C"/>
<path d="M690.73 1104.77V1038.83H682V1104.77H690.73Z" fill="#EED12C"/>
<path d="M606.45 1065.21H566.12V1070.55H606.45V1065.21Z" fill="#EED12C"/>
<path d="M571.65 1107.04V1066.71H566.31V1107.04H571.65Z" fill="#EED12C"/>
<path d="M606.04 1106.4V1066.07H600.7V1106.4H606.04Z" fill="#EED12C"/>
<path d="M723.13 1069.63V1025.35H717.27V1069.63H723.13Z" fill="#EED12C"/>
<path d="M693.44 1070.38H723.57V1065.04H693.44V1070.38Z" fill="#EED12C"/>
<path d="M723.43 1106.86V1066.53H719.44V1106.86H723.43Z" fill="#EED12C"/>
<path d="M697.73 1106.23V1065.9H693.74V1106.23H697.73Z" fill="#EED12C"/>
<path d="M176.29 650.33H115.51C106.795 650.33 99.73 657.395 99.73 666.11V666.12C99.73 674.835 106.795 681.9 115.51 681.9H176.29C185.005 681.9 192.07 674.835 192.07 666.12V666.11C192.07 657.395 185.005 650.33 176.29 650.33Z" fill="#91D2DE"/>
<path d="M162.42 735.43V674.65C162.42 665.935 155.355 658.87 146.64 658.87H146.63C137.915 658.87 130.85 665.935 130.85 674.65V735.43C130.85 744.145 137.915 751.21 146.63 751.21H146.64C155.355 751.21 162.42 744.145 162.42 735.43Z" fill="#91D2DE"/>
<path d="M129.67 628.16H162.3C165.636 628.16 168.34 625.456 168.34 622.12C168.34 618.784 165.636 616.08 162.3 616.08H129.67C126.334 616.08 123.63 618.784 123.63 622.12C123.63 625.456 126.334 628.16 129.67 628.16Z" fill="#91D2DE"/>
<path d="M125.17 632.13H133.83C135.818 632.13 137.43 630.518 137.43 628.53V623.65C137.43 621.662 135.818 620.05 133.83 620.05H125.17C123.182 620.05 121.57 621.662 121.57 623.65V628.53C121.57 630.518 123.182 632.13 125.17 632.13Z" fill="#BDDB88"/>
<path d="M161.25 632.26H169.91C171.898 632.26 173.51 630.648 173.51 628.66V623.78C173.51 621.792 171.898 620.18 169.91 620.18H161.25C159.262 620.18 157.65 621.792 157.65 623.78V628.66C157.65 630.648 159.262 632.26 161.25 632.26Z" fill="#EA7D38"/>
<path d="M48.8 696.05V655.46C48.8 646.745 41.7351 639.68 33.02 639.68H33.01C24.295 639.68 17.23 646.745 17.23 655.46L17.23 696.05C17.23 704.765 24.295 711.83 33.01 711.83H33.02C41.7351 711.83 48.8 704.765 48.8 696.05Z" fill="#91D2DE"/>
<path d="M49.6892 695.522L61.6254 648.864C62.0538 647.19 61.0435 645.485 59.3688 645.056L59.3591 645.054C57.6844 644.625 55.9794 645.636 55.551 647.311L43.6148 693.968C43.1863 695.643 44.1967 697.348 45.8714 697.776L45.8811 697.778C47.5558 698.207 49.2607 697.197 49.6892 695.522Z" fill="#91D2DE"/>
<path d="M20.26 746.06V707.56C20.26 700.73 36.1 694.68 44.81 694.68C53.53 694.68 80.41 698.32 80.41 705.16L69.36 747.5C69.36 754.33 53.52 751.24 44.81 751.24C36.09 751.24 20.26 752.89 20.26 746.06Z" fill="#91D2DE"/>
<path d="M626.48 865.39C626.48 865.39 615.37 905.02 587.83 933.58L607.21 975.92L576.1 976.94L577.56 865.81L626.49 865.39H626.48Z" fill="#8A9C5F"/>
<path d="M669.6 864.15C669.6 864.15 680.71 903.78 708.25 932.34L688.87 974.68L719.98 975.7L718.52 864.57L669.59 864.15H669.6Z" fill="#8A9C5F"/>
<path d="M113.6 655.92L180.75 656.22C180.75 656.22 167.08 678.21 146.88 675.83C126.68 673.45 114.2 658.3 113.6 655.92Z" fill="#F3EAE5"/>
<path d="M374.37 752.83L363.54 1110.1" stroke="#8A9C5F" stroke-width="9" stroke-miterlimit="10"/>
<path d="M424.24 1069.64L360.65 1066.1" stroke="#8A9C5F" stroke-width="3.77" stroke-miterlimit="10"/>
<path d="M421.31 1047.68L357.72 1044.13" stroke="#8A9C5F" stroke-width="3.77" stroke-miterlimit="10"/>
<path d="M423.51 1023.52L359.91 1019.97" stroke="#8A9C5F" stroke-width="3.77" stroke-miterlimit="10"/>
<path d="M423.51 1001.55L359.91 998.01" stroke="#8A9C5F" stroke-width="3.77" stroke-miterlimit="10"/>
<path d="M421.31 973.73L357.72 970.18" stroke="#8A9C5F" stroke-width="3.77" stroke-miterlimit="10"/>
<path d="M418.38 946.63L354.79 943.09" stroke="#8A9C5F" stroke-width="3.77" stroke-miterlimit="10"/>
<path d="M422.04 918.81L358.45 915.27" stroke="#8A9C5F" stroke-width="3.77" stroke-miterlimit="10"/>
<path d="M418.29 899.63L362.64 896.53" stroke="#8A9C5F" stroke-width="3.3" stroke-miterlimit="10"/>
<path d="M418.29 886.92L362.64 883.82" stroke="#8A9C5F" stroke-width="3.3" stroke-miterlimit="10"/>
<path d="M418.66 861.12L363.01 858.02" stroke="#8A9C5F" stroke-width="3.3" stroke-miterlimit="10"/>
<path d="M419.04 840.19L363.39 837.09" stroke="#8A9C5F" stroke-width="3.3" stroke-miterlimit="10"/>
<path d="M419.04 821.12L363.39 818.02" stroke="#8A9C5F" stroke-width="3.3" stroke-miterlimit="10"/>
<path d="M419.04 804.93L363.39 801.83" stroke="#8A9C5F" stroke-width="3.3" stroke-miterlimit="10"/>
<path d="M419.04 788.09L363.39 784.98" stroke="#8A9C5F" stroke-width="3.3" stroke-miterlimit="10"/>
<path d="M419.04 768L363.39 764.9" stroke="#8A9C5F" stroke-width="3.3" stroke-miterlimit="10"/>
<path d="M420.14 754.66L364.49 751.56" stroke="#8A9C5F" stroke-width="3.3" stroke-miterlimit="10"/>
<path d="M404.63 754.4L418.78 1111.56" stroke="#8A9C5F" stroke-width="9" stroke-miterlimit="10"/>
<path d="M500.74 865.62C514.492 865.62 525.64 854.127 525.64 839.95C525.64 825.773 514.492 814.28 500.74 814.28C486.988 814.28 475.84 825.773 475.84 839.95C475.84 854.127 486.988 865.62 500.74 865.62Z" fill="#EED12C"/>
<path d="M502.27 820.22H497.14V840.18H502.27V820.22Z" fill="#91D2DE"/>
<path d="M513.984 852.579L515.775 850.299L500.081 837.966L498.289 840.247L513.984 852.579Z" fill="#91D2DE"/>
<path d="M287.31 969.69H191.89C170.887 969.69 153.86 986.717 153.86 1007.72V1030.42C153.86 1051.42 170.887 1068.45 191.89 1068.45H287.31C308.313 1068.45 325.34 1051.42 325.34 1030.42V1007.72C325.34 986.717 308.313 969.69 287.31 969.69Z" fill="#EA7D38"/>
<path d="M417.08 403.79C417.08 403.79 367.21 396.42 406.24 373.43C445.27 350.44 473.46 317.92 473.46 317.92C473.46 317.92 529.4 288 527.67 328.76C525.94 369.52 524.63 408.55 524.63 408.55C524.63 408.55 438.77 416.79 417.08 403.78V403.79Z" fill="#91D2DE"/>
<path d="M425.47 381.43C424.75 376.68 428.59 372.74 434.71 365.58C439.17 360.64 444.83 354.73 450.74 348.67C459.31 340.2 467.74 330.8 477.69 324.57C480.13 323.15 482.43 322.14 485.04 321.71C500.69 319.6 510.39 346.9 503.8 359.53C499.41 368.74 490.35 374.64 481.4 379.66C470.19 385.99 455.04 389.04 442.81 388.1C437.07 387.92 426.16 385.96 425.49 381.51L425.47 381.43Z" fill="#7CC4CE"/>
<path d="M540.69 143.36H529.44V198.2H540.69V143.36Z" fill="#90C24B"/>
<path d="M524.906 121.893L516.133 128.935L629.394 270.055L638.167 263.013L524.906 121.893Z" fill="#90C24B"/>
<path d="M423.26 21.49H412.01V76.33H423.26V21.49Z" fill="#90C24B"/>
<path d="M407.475 0.00670098L398.701 7.04834L511.962 148.168L520.736 141.127L407.475 0.00670098Z" fill="#90C24B"/>
<rect x="46" y="556" width="100" height="9" fill="#EA7D38"/>
<rect x="183" y="636" width="84" height="7" fill="#EA7D38"/>
<rect x="61" y="584" width="18" height="17" fill="#D9D9D9"/>
<rect x="92" y="584" width="18" height="17" fill="#D9D9D9"/>
<circle cx="65.5" cy="592.5" r="1.5" fill="#342525"/>
<circle cx="97.5" cy="592.5" r="1.5" fill="#342525"/>
<circle cx="73.5" cy="592.5" r="1.5" fill="#342525"/>
<circle cx="105.5" cy="592.5" r="1.5" fill="#342525"/>
<path d="M247.405 614H206.595C200.744 614 196 618.923 196 624.996V625.003C196 631.077 200.744 636 206.595 636H247.405C253.256 636 258 631.077 258 625.003V624.996C258 618.923 253.256 614 247.405 614Z" fill="#91D2DE"/>
<rect x="203" y="613.347" width="29" height="1" transform="rotate(-34.3118 203 613.347)" fill="#EA7D38"/>
<circle cx="210" cy="625" r="8" fill="#185DA9"/>
<circle cx="220.5" cy="618.5" r="2.5" fill="#185DA9"/>
<circle cx="226.5" cy="618.5" r="2.5" fill="#185DA9"/>
<circle cx="232.5" cy="618.5" r="2.5" fill="#185DA9"/>
<circle cx="243" cy="625" r="8" fill="#185DA9"/>
<path d="M671.405 954H630.595C624.744 954 620 958.923 620 964.996V965.003C620 971.077 624.744 976 630.595 976H671.405C677.256 976 682 971.077 682 965.003V964.996C682 958.923 677.256 954 671.405 954Z" fill="white"/>
<rect x="627" y="953.347" width="29" height="1" transform="rotate(-34.3118 627 953.347)" fill="#EA7D38"/>
<circle cx="634" cy="965" r="8" fill="#185DA9"/>
<circle cx="644.5" cy="958.5" r="2.5" fill="#185DA9"/>
<circle cx="650.5" cy="958.5" r="2.5" fill="#185DA9"/>
<circle cx="656.5" cy="958.5" r="2.5" fill="#185DA9"/>
<circle cx="667" cy="965" r="8" fill="#185DA9"/>
<path d="M536 648.988C536.067 649.133 538.657 646.891 538.705 647.011C538.762 647.132 546.076 648.855 546.142 648.988C546.209 649.121 548.799 646.915 548.847 647.011C548.894 647.12 556.818 648.855 556.884 648.988C556.951 649.121 559.551 646.915 559.589 647.011C559.656 647.168 566.827 648.831 566.903 648.988C566.988 649.181 569.541 646.867 569.607 647.011C569.674 647.156 577.807 648.831 577.883 648.988C577.94 649.109 580.521 646.867 580.587 647.011C580.654 647.156 587.692 648.892 587.73 648.988C587.816 649.169 590.377 646.879 590.434 647.011C590.492 647.144 598.186 648.892 598.224 648.988C598.31 649.181 600.872 646.879 600.929 647.011C600.986 647.144 608.062 648.867 608.119 648.988C608.186 649.121 610.776 646.891 610.824 647.011C610.871 647.132 617.537 648.904 617.575 648.988C617.623 649.084 620.223 646.867 620.28 647.011C620.318 647.096 627.775 648.867 627.832 648.988C627.918 649.169 630.451 646.818 630.537 647.011C630.584 647.12 637.327 648.904 637.365 648.988C637.412 649.097 640.012 646.891 640.069 647.011C640.126 647.144 648.259 648.843 648.326 648.988C648.411 649.181 650.973 646.891 651.03 647.011C651.097 647.144 658.344 648.831 658.42 648.988C658.477 649.109 661.077 646.903 661.125 647.011C661.192 647.144 667.82 648.904 667.858 648.988C667.905 649.084 670.496 646.855 670.562 647.011C670.629 647.156 677.114 648.904 677.152 648.988C677.21 649.109 677.962 648.277 678 648.373" stroke="#83262F" stroke-width="3.2" stroke-linecap="round" stroke-linejoin="round"/>
<rect x="629" y="818" width="28" height="35" fill="#EED12C"/>
<rect x="632" y="823" width="21" height="26" fill="#91D2DE"/>
<rect x="629" y="818.862" width="28" height="2" transform="rotate(-51.3333 629 818.862)" fill="#EED12C"/>
<rect x="647.552" y="797.993" width="23.6539" height="2" transform="rotate(66.7601 647.552 797.993)" fill="#EED12C"/>
<path d="M643 826L645.245 832.91H652.511L646.633 837.18L648.878 844.09L643 839.82L637.122 844.09L639.367 837.18L633.489 832.91H640.755L643 826Z" fill="#FEE600"/>
<path d="M613.473 278.866C613.473 278.866 617.897 264.25 626.439 269.625C634.981 274.999 636.327 279.337 636.327 279.337C636.327 279.337 634.389 259.335 650.23 255.071C666.071 250.807 669.964 269.712 667.613 274.736L665.273 279.76L665.089 283.459C665.089 283.459 684.929 265.024 704.394 275.534C723.866 286.037 721.46 306.515 721.46 306.515C721.46 306.515 719.642 320.675 702.994 331.468C702.994 331.468 717.581 332.005 713.327 342.044C709.072 352.083 701.204 347.796 701.204 347.796C701.204 347.796 717.149 353.985 714.639 364.01C712.129 374.036 708.67 375.807 708.67 375.807L613.479 278.86L613.473 278.866Z" fill="#5C8039"/>
</g>
<defs>
<filter id="filter0_d_34_92" x="0.400024" y="0" width="752.7" height="1120.19" filterUnits="userSpaceOnUse" color-interpolation-filters="sRGB">
<feFlood flood-opacity="0" result="BackgroundImageFix"/>
<feColorMatrix in="SourceAlpha" type="matrix" values="0 0 0 0 0 0 0 0 0 0 0 0 0 0 0 0 0 0 127 0" result="hardAlpha"/>
<feOffset dy="4"/>
<feGaussianBlur stdDeviation="2"/>
<feComposite in2="hardAlpha" operator="out"/>
<feColorMatrix type="matrix" values="0 0 0 0 0 0 0 0 0 0 0 0 0 0 0 0 0 0 0.25 0"/>
<feBlend mode="normal" in2="BackgroundImageFix" result="effect1_dropShadow_34_92"/>
<feBlend mode="normal" in="SourceGraphic" in2="effect1_dropShadow_34_92" result="shape"/>
</filter>
<clipPath id="clip0_34_92">
<rect width="744.7" height="1112.19" fill="white" transform="translate(4.40002)"/>
</clipPath>
</defs>
</svg>
