<svg width="295" height="362" viewBox="0 0 295 362" fill="none" xmlns="http://www.w3.org/2000/svg">
<g clip-path="url(#clip0_44_142)">
<path d="M155.48 88.34L205.39 161.07C190.72 171.23 173.31 176.68 155.48 176.68C107.25 176.68 67.55 136.8 67.55 88.34C67.55 39.88 107.25 0 155.48 0C183.08 0 209.12 13.05 225.72 35.2L155.48 88.34Z" fill="#F0DED0"/>
<path d="M174.31 57.07C179.352 57.07 183.44 53.2017 183.44 48.43C183.44 43.6582 179.352 39.79 174.31 39.79C169.268 39.79 165.18 43.6582 165.18 48.43C165.18 53.2017 169.268 57.07 174.31 57.07Z" fill="#1E5BAA"/>
<path d="M139.62 67.12C144.662 67.12 148.75 59.2402 148.75 49.52C148.75 39.7998 144.662 31.92 139.62 31.92C134.578 31.92 130.49 39.7998 130.49 49.52C130.49 59.2402 134.578 67.12 139.62 67.12Z" fill="#1E5BAA"/>
<path d="M185.09 180.47H120.83C116.334 180.47 112.69 184.114 112.69 188.61V285.49C112.69 289.986 116.334 293.63 120.83 293.63H185.09C189.586 293.63 193.23 289.986 193.23 285.49V188.61C193.23 184.114 189.586 180.47 185.09 180.47Z" fill="#1E5BAA"/>
<path d="M186.09 187.642L190.323 198.389C190.93 199.93 192.672 200.688 194.213 200.081L254.17 176.463C255.711 175.856 256.469 174.114 255.861 172.572L251.628 161.826C251.021 160.285 249.279 159.527 247.738 160.134L187.781 183.752C186.24 184.359 185.482 186.101 186.09 187.642Z" fill="#1E5BAA"/>
<path d="M293.692 122.973L284.66 115.774C283.364 114.741 281.477 114.954 280.444 116.249L240.277 166.639C239.244 167.934 239.457 169.822 240.752 170.854L249.784 178.054C251.08 179.087 252.967 178.874 254 177.578L294.168 127.189C295.2 125.893 294.987 124.006 293.692 122.973Z" fill="#1E5BAA"/>
<path d="M6.16477 152.75L0.389771 162.753C-0.438657 164.188 0.0529688 166.022 1.48785 166.851L57.2945 199.071C58.7294 199.899 60.5642 199.408 61.3926 197.973L67.1676 187.97C67.996 186.535 67.5044 184.7 66.0695 183.872L10.2628 151.652C8.82797 150.824 6.9932 151.315 6.16477 152.75Z" fill="#1E5BAA"/>
<path d="M120.929 195.103L120.512 183.561C120.452 181.905 119.061 180.611 117.406 180.671L53.0077 182.999C51.3519 183.058 50.0582 184.449 50.118 186.105L50.5352 197.648C50.595 199.303 51.9858 200.597 53.6416 200.537L118.04 198.21C119.695 198.15 120.989 196.759 120.929 195.103Z" fill="#1E5BAA"/>
<path d="M152.186 289.407L139.922 283.413C138.955 282.94 137.787 283.341 137.314 284.309L126.08 307.29C125.608 308.257 126.008 309.425 126.976 309.898L139.239 315.893C140.207 316.366 141.375 315.965 141.848 314.997L153.081 292.016C153.554 291.048 153.153 289.88 152.186 289.407Z" fill="#1E5BAA"/>
<path d="M140.213 304.315L127.821 307.478C126.547 307.803 125.778 309.099 126.103 310.373L135.628 347.686C135.953 348.96 137.25 349.729 138.523 349.404L150.916 346.24C152.189 345.915 152.958 344.619 152.633 343.346L143.108 306.032C142.783 304.759 141.487 303.99 140.213 304.315Z" fill="#1E5BAA"/>
<path d="M177.086 316.699L189.35 310.704C190.317 310.231 190.718 309.063 190.245 308.096L179.012 285.115C178.539 284.147 177.371 283.746 176.403 284.219L164.14 290.213C163.172 290.686 162.772 291.854 163.244 292.822L174.478 315.803C174.951 316.771 176.119 317.172 177.086 316.699Z" fill="#1E5BAA"/>
<path d="M165.413 347.013L177.805 350.177C179.079 350.502 180.375 349.733 180.7 348.459L190.225 311.146C190.55 309.872 189.781 308.576 188.508 308.251L176.115 305.088C174.841 304.763 173.545 305.532 173.22 306.805L163.695 344.119C163.37 345.392 164.139 346.688 165.413 347.013Z" fill="#1E5BAA"/>
<path d="M147.25 340.229L110.962 342.677L112.207 361.125L148.494 358.677L147.25 340.229Z" fill="#1E5BAA"/>
<path d="M205.232 337.612L168.944 340.06L170.189 358.508L206.477 356.06L205.232 337.612Z" fill="#1E5BAA"/>
</g>
<defs>
<clipPath id="clip0_44_142">
<rect width="294.83" height="361.13" fill="white"/>
</clipPath>
</defs>
</svg>
