<svg width="176" height="365" viewBox="0 0 176 365" fill="none" xmlns="http://www.w3.org/2000/svg">
<g clip-path="url(#clip0_44_114)">
<path d="M87.93 176.68C136.492 176.68 175.86 137.129 175.86 88.34C175.86 39.5512 136.492 0 87.93 0C39.3676 0 0 39.5512 0 88.34C0 137.129 39.3676 176.68 87.93 176.68Z" fill="#F0DED0"/>
<path d="M50.83 93.69C55.8723 93.69 59.9599 83.2672 59.9599 70.41C59.9599 57.5528 55.8723 47.13 50.83 47.13C45.7876 47.13 41.7 57.5528 41.7 70.41C41.7 83.2672 45.7876 93.69 50.83 93.69Z" fill="#1E5BAA"/>
<path d="M112.92 93.23C117.962 93.23 122.05 82.8072 122.05 69.95C122.05 57.0928 117.962 46.67 112.92 46.67C107.878 46.67 103.79 57.0928 103.79 69.95C103.79 82.8072 107.878 93.23 112.92 93.23Z" fill="#1E5BAA"/>
<path d="M125.71 182.68H61.4501C56.9545 182.68 53.3101 186.324 53.3101 190.82V287.7C53.3101 292.196 56.9545 295.84 61.4501 295.84H125.71C130.206 295.84 133.85 292.196 133.85 287.7V190.82C133.85 186.324 130.206 182.68 125.71 182.68Z" fill="#1E5BAA"/>
<path d="M134.415 187.352L123.866 192.055C122.352 192.73 121.673 194.503 122.347 196.017L148.588 254.872C149.263 256.385 151.037 257.065 152.55 256.39L163.099 251.687C164.612 251.012 165.292 249.239 164.617 247.725L138.376 188.87C137.702 187.357 135.928 186.677 134.415 187.352Z" fill="#1E5BAA"/>
<path d="M25.9656 224.904L15.4166 229.607C13.9034 230.282 13.2236 232.056 13.8983 233.569L40.1392 292.424C40.8139 293.937 42.5876 294.617 44.1008 293.942L54.6498 289.239C56.1631 288.564 56.8429 286.791 56.1682 285.277L29.9273 226.422C29.2526 224.909 27.4789 224.229 25.9656 224.904Z" fill="#1E5BAA"/>
<path d="M61.4851 195.158L52.4535 187.959C51.1579 186.926 49.2704 187.139 48.2377 188.434L8.07003 238.824C7.03726 240.119 7.25031 242.007 8.5459 243.04L17.5775 250.239C18.8731 251.272 20.7606 251.059 21.7934 249.763L61.961 199.374C62.9938 198.078 62.7807 196.191 61.4851 195.158Z" fill="#1E5BAA"/>
<path d="M165.235 240.646L156.204 233.447C154.908 232.414 153.021 232.627 151.988 233.923L111.82 284.312C110.788 285.608 111.001 287.495 112.296 288.528L121.328 295.727C122.623 296.76 124.511 296.547 125.544 295.251L165.711 244.862C166.744 243.567 166.531 241.679 165.235 240.646Z" fill="#1E5BAA"/>
<path d="M85.7094 287.857L74.1856 288.634C72.5325 288.746 71.2828 290.176 71.3943 291.83L75.7324 356.123C75.8439 357.776 77.2744 359.026 78.9275 358.915L90.4513 358.137C92.1044 358.026 93.3541 356.595 93.2425 354.942L88.9045 290.648C88.793 288.995 87.3625 287.745 85.7094 287.857Z" fill="#1E5BAA"/>
<path d="M88.5851 343.531L52.2976 345.979L53.5423 364.428L89.8298 361.979L88.5851 343.531Z" fill="#1E5BAA"/>
<path d="M146.557 340.914L110.27 343.362L111.514 361.81L147.802 359.362L146.557 340.914Z" fill="#1E5BAA"/>
<path d="M118.865 286.229L107.341 287.006C105.688 287.118 104.438 288.549 104.549 290.202L108.888 354.495C108.999 356.149 110.43 357.398 112.083 357.287L123.606 356.509C125.26 356.398 126.509 354.967 126.398 353.314L122.06 289.02C121.948 287.367 120.518 286.117 118.865 286.229Z" fill="#1E5BAA"/>
</g>
<defs>
<clipPath id="clip0_44_114">
<rect width="175.85" height="364.44" fill="white"/>
</clipPath>
</defs>
</svg>
