<svg width="210" height="362" viewBox="0 0 210 362" fill="none" xmlns="http://www.w3.org/2000/svg">
<g clip-path="url(#clip0_44_128)">
<path d="M107.97 88.34L190.69 118.28C178.15 153.23 144.95 176.67 107.97 176.67C59.74 176.67 20.04 136.79 20.04 88.33C20.04 39.87 59.74 0 107.97 0C135.57 0 161.61 13.05 178.21 35.2L107.97 88.34Z" fill="#F0DED0"/>
<path d="M126.8 57.07C131.842 57.07 135.93 46.6472 135.93 33.79C135.93 20.9328 131.842 10.51 126.8 10.51C121.758 10.51 117.67 20.9328 117.67 33.79C117.67 46.6472 121.758 57.07 126.8 57.07Z" fill="#1E5BAA"/>
<path d="M92.11 67.12C97.1523 67.12 101.24 56.6972 101.24 43.84C101.24 30.9828 97.1523 20.56 92.11 20.56C87.0676 20.56 82.98 30.9828 82.98 43.84C82.98 56.6972 87.0676 67.12 92.11 67.12Z" fill="#1E5BAA"/>
<path d="M137.58 180.47H73.3201C68.8245 180.47 65.1801 184.114 65.1801 188.61V285.49C65.1801 289.986 68.8245 293.63 73.3201 293.63H137.58C142.076 293.63 145.72 289.986 145.72 285.49V188.61C145.72 184.114 142.076 180.47 137.58 180.47Z" fill="#1E5BAA"/>
<path d="M141.884 182.062L131.335 186.766C129.822 187.44 129.142 189.214 129.817 190.727L156.058 249.582C156.732 251.096 158.506 251.775 160.019 251.101L170.568 246.397C172.081 245.723 172.761 243.949 172.087 242.436L145.846 183.581C145.171 182.067 143.397 181.388 141.884 182.062Z" fill="#1E5BAA"/>
<path d="M208.654 194.728L199.622 187.528C198.326 186.496 196.439 186.709 195.406 188.004L155.238 238.393C154.206 239.689 154.419 241.577 155.714 242.609L164.746 249.809C166.042 250.842 167.929 250.629 168.962 249.333L209.129 198.944C210.162 197.648 209.949 195.761 208.654 194.728Z" fill="#1E5BAA"/>
<path d="M12.3353 181.442L1.78626 186.145C0.273003 186.82 -0.406786 188.593 0.267909 190.107L26.5088 248.962C27.1835 250.475 28.9572 251.155 30.4705 250.48L41.0195 245.777C42.5327 245.102 43.2125 243.328 42.5378 241.815L16.2969 182.96C15.6222 181.447 13.8485 180.767 12.3353 181.442Z" fill="#1E5BAA"/>
<path d="M79.0977 194.11L70.0661 186.911C68.7705 185.878 66.883 186.091 65.8502 187.387L25.6826 237.776C24.6498 239.071 24.8629 240.959 26.1584 241.992L35.19 249.191C36.4856 250.224 38.3731 250.011 39.4059 248.715L79.5735 198.326C80.6063 197.03 80.3933 195.143 79.0977 194.11Z" fill="#1E5BAA"/>
<path d="M96.872 284.553L85.3482 285.331C83.6951 285.442 82.4454 286.873 82.5569 288.526L86.895 352.82C87.0065 354.473 88.437 355.722 90.0901 355.611L101.614 354.833C103.267 354.722 104.517 353.291 104.405 351.638L100.067 287.344C99.9556 285.691 98.5251 284.442 96.872 284.553Z" fill="#1E5BAA"/>
<path d="M99.7376 340.227L63.4501 342.676L64.6948 361.124L100.982 358.675L99.7376 340.227Z" fill="#1E5BAA"/>
<path d="M157.72 337.61L121.432 340.058L122.677 358.507L158.964 356.058L157.72 337.61Z" fill="#1E5BAA"/>
<path d="M130.016 282.915L118.493 283.693C116.839 283.804 115.59 285.235 115.701 286.888L120.039 351.182C120.151 352.835 121.581 354.084 123.235 353.973L134.758 353.195C136.411 353.084 137.661 351.653 137.55 350L133.212 285.706C133.1 284.053 131.669 282.804 130.016 282.915Z" fill="#1E5BAA"/>
</g>
<defs>
<clipPath id="clip0_44_128">
<rect width="209.79" height="361.13" fill="white"/>
</clipPath>
</defs>
</svg>
