<svg width="56" height="53" viewBox="0 0 56 53" fill="none" xmlns="http://www.w3.org/2000/svg">
<path d="M19.7619 13.0952H20.7143V14.0476H19.7619V13.0952ZM20.7143 13.0952H21.6667V14.0476H20.7143V13.0952ZM21.6667 13.0952H22.619V14.0476H21.6667V13.0952ZM22.619 13.0952H23.5714V14.0476H22.619V13.0952ZM20.7143 14.0476H21.6667V15H20.7143V14.0476ZM21.6667 14.0476H22.619V15H21.6667V14.0476ZM18.8095 13.0952H19.7619V14.0476H18.8095V13.0952ZM19.7619 12.1429H20.7143V13.0952H19.7619V12.1429ZM19.7619 11.1905H20.7143V12.1429H19.7619V11.1905ZM19.7619 10.2381H20.7143V11.1905H19.7619V10.2381ZM20.7143 12.1429H21.6667V13.0952H20.7143V12.1429ZM20.7143 11.1905H21.6667V12.1429H20.7143V11.1905ZM20.7143 10.2381H21.6667V11.1905H20.7143V10.2381ZM20.7143 9.28571H21.6667V10.2381H20.7143V9.28571ZM23.5714 8.33333H24.5238V9.28571H23.5714V8.33333ZM23.5714 9.28571H24.5238V10.2381H23.5714V9.28571ZM24.5238 9.28571H25.4762V10.2381H24.5238V9.28571ZM23.5714 10.2381H24.5238V11.1905H23.5714V10.2381ZM24.5238 10.2381H25.4762V11.1905H24.5238V10.2381ZM24.5238 11.1905H25.4762V12.1429H24.5238V11.1905ZM23.5714 11.1905H24.5238V12.1429H23.5714V11.1905ZM23.5714 12.1429H24.5238V13.0952H23.5714V12.1429ZM24.5238 12.1429H25.4762V13.0952H24.5238V12.1429ZM23.5714 13.0952H24.5238V14.0476H23.5714V13.0952ZM23.5714 14.0476H24.5238V15H23.5714V14.0476ZM24.5238 14.0476H25.4762V15H24.5238V14.0476ZM24.5238 13.0952H25.4762V14.0476H24.5238V13.0952ZM25.4762 13.0952H26.4286V14.0476H25.4762V13.0952ZM21.6667 7.38095H22.619V8.33333H21.6667V7.38095ZM22.619 7.38095H23.5714V8.33333H22.619V7.38095ZM23.5714 7.38095H24.5238V8.33333H23.5714V7.38095ZM25.4762 8.33333H26.4286V9.28571H25.4762V8.33333ZM24.5238 8.33333H25.4762V9.28571H24.5238V8.33333ZM20.7143 8.33333H21.6667V9.28571H20.7143V8.33333ZM19.7619 9.28571H20.7143V10.2381H19.7619V9.28571ZM26.4286 13.0952H27.381V14.0476H26.4286V13.0952ZM27.381 12.1429H28.3333V13.0952H27.381V12.1429ZM28.3333 11.1905H29.2857V12.1429H28.3333V11.1905ZM28.3333 10.2381H29.2857V11.1905H28.3333V10.2381ZM28.3333 9.28571H29.2857V10.2381H28.3333V9.28571ZM28.3333 8.33333H29.2857V9.28571H28.3333V8.33333ZM15.9524 8.33333H16.9048V9.28571H15.9524V8.33333ZM15.9524 9.28571H16.9048V10.2381H15.9524V9.28571ZM15.9524 10.2381H16.9048V11.1905H15.9524V10.2381ZM15.9524 11.1905H16.9048V12.1429H15.9524V11.1905ZM15.9524 12.1429H16.9048V13.0952H15.9524V12.1429ZM15.9524 13.0952H16.9048V14.0476H15.9524V13.0952ZM16.9048 14.0476H17.8571V15H16.9048V14.0476ZM16.9048 15H17.8571V15.9524H16.9048V15ZM17.8571 15.9524H18.8095V16.9048H17.8571V15.9524ZM18.8095 15.9524H19.7619V16.9048H18.8095V15.9524ZM19.7619 16.9048H20.7143V17.8571H19.7619V16.9048ZM20.7143 16.9048H21.6667V17.8571H20.7143V16.9048ZM21.6667 16.9048H22.619V17.8571H21.6667V16.9048ZM22.619 16.9048H23.5714V17.8571H22.619V16.9048ZM23.5714 16.9048H24.5238V17.8571H23.5714V16.9048ZM24.5238 16.9048H25.4762V17.8571H24.5238V16.9048ZM25.4762 16.9048H26.4286V17.8571H25.4762V16.9048ZM26.4286 15.9524H27.381V16.9048H26.4286V15.9524ZM16.9048 7.38095H17.8571V8.33333H16.9048V7.38095ZM16.9048 6.42857H17.8571V7.38095H16.9048V6.42857ZM17.8571 5.47619H18.8095V6.42857H17.8571V5.47619ZM18.8095 5.47619H19.7619V6.42857H18.8095V5.47619ZM19.7619 4.52381H20.7143V5.47619H19.7619V4.52381ZM20.7143 4.52381H21.6667V5.47619H20.7143V4.52381ZM21.6667 4.52381H22.619V5.47619H21.6667V4.52381ZM22.619 4.52381H23.5714V5.47619H22.619V4.52381ZM23.5714 4.52381H24.5238V5.47619H23.5714V4.52381ZM24.5238 4.52381H25.4762V5.47619H24.5238V4.52381ZM25.4762 5.47619H26.4286V6.42857H25.4762V5.47619ZM26.4286 5.47619H27.381V6.42857H26.4286V5.47619ZM27.381 6.42857H28.3333V7.38095H27.381V6.42857ZM27.381 7.38095H28.3333V8.33333H27.381V7.38095Z" fill="black"/>
<path d="M45.7619 39.0952H46.7143V40.0476H45.7619V39.0952ZM46.7143 39.0952H47.6667V40.0476H46.7143V39.0952ZM47.6667 39.0952H48.619V40.0476H47.6667V39.0952ZM48.619 39.0952H49.5714V40.0476H48.619V39.0952ZM46.7143 40.0476H47.6667V41H46.7143V40.0476ZM47.6667 40.0476H48.619V41H47.6667V40.0476ZM44.8095 39.0952H45.7619V40.0476H44.8095V39.0952ZM45.7619 38.1429H46.7143V39.0952H45.7619V38.1429ZM45.7619 37.1905H46.7143V38.1429H45.7619V37.1905ZM45.7619 36.2381H46.7143V37.1905H45.7619V36.2381ZM46.7143 38.1429H47.6667V39.0952H46.7143V38.1429ZM46.7143 37.1905H47.6667V38.1429H46.7143V37.1905ZM46.7143 36.2381H47.6667V37.1905H46.7143V36.2381ZM46.7143 35.2857H47.6667V36.2381H46.7143V35.2857ZM49.5714 34.3333H50.5238V35.2857H49.5714V34.3333ZM49.5714 35.2857H50.5238V36.2381H49.5714V35.2857ZM50.5238 35.2857H51.4762V36.2381H50.5238V35.2857ZM49.5714 36.2381H50.5238V37.1905H49.5714V36.2381ZM50.5238 36.2381H51.4762V37.1905H50.5238V36.2381ZM50.5238 37.1905H51.4762V38.1429H50.5238V37.1905ZM49.5714 37.1905H50.5238V38.1429H49.5714V37.1905ZM49.5714 38.1429H50.5238V39.0952H49.5714V38.1429ZM50.5238 38.1429H51.4762V39.0952H50.5238V38.1429ZM49.5714 39.0952H50.5238V40.0476H49.5714V39.0952ZM49.5714 40.0476H50.5238V41H49.5714V40.0476ZM50.5238 40.0476H51.4762V41H50.5238V40.0476ZM50.5238 39.0952H51.4762V40.0476H50.5238V39.0952ZM51.4762 39.0952H52.4286V40.0476H51.4762V39.0952ZM47.6667 33.381H48.619V34.3333H47.6667V33.381ZM48.619 33.381H49.5714V34.3333H48.619V33.381ZM49.5714 33.381H50.5238V34.3333H49.5714V33.381ZM51.4762 34.3333H52.4286V35.2857H51.4762V34.3333ZM50.5238 34.3333H51.4762V35.2857H50.5238V34.3333ZM46.7143 34.3333H47.6667V35.2857H46.7143V34.3333ZM45.7619 35.2857H46.7143V36.2381H45.7619V35.2857ZM52.4286 39.0952H53.381V40.0476H52.4286V39.0952ZM53.381 38.1429H54.3333V39.0952H53.381V38.1429ZM54.3333 37.1905H55.2857V38.1429H54.3333V37.1905ZM54.3333 36.2381H55.2857V37.1905H54.3333V36.2381ZM54.3333 35.2857H55.2857V36.2381H54.3333V35.2857ZM54.3333 34.3333H55.2857V35.2857H54.3333V34.3333ZM41.9524 34.3333H42.9048V35.2857H41.9524V34.3333ZM41.9524 35.2857H42.9048V36.2381H41.9524V35.2857ZM41.9524 36.2381H42.9048V37.1905H41.9524V36.2381ZM41.9524 37.1905H42.9048V38.1429H41.9524V37.1905ZM41.9524 38.1429H42.9048V39.0952H41.9524V38.1429ZM41.9524 39.0952H42.9048V40.0476H41.9524V39.0952ZM42.9048 40.0476H43.8571V41H42.9048V40.0476ZM42.9048 41H43.8571V41.9524H42.9048V41ZM43.8571 41.9524H44.8095V42.9048H43.8571V41.9524ZM44.8095 41.9524H45.7619V42.9048H44.8095V41.9524ZM45.7619 42.9048H46.7143V43.8571H45.7619V42.9048ZM46.7143 42.9048H47.6667V43.8571H46.7143V42.9048ZM47.6667 42.9048H48.619V43.8571H47.6667V42.9048ZM48.619 42.9048H49.5714V43.8571H48.619V42.9048ZM49.5714 42.9048H50.5238V43.8571H49.5714V42.9048ZM50.5238 42.9048H51.4762V43.8571H50.5238V42.9048ZM51.4762 42.9048H52.4286V43.8571H51.4762V42.9048ZM52.4286 41.9524H53.381V42.9048H52.4286V41.9524ZM42.9048 33.381H43.8571V34.3333H42.9048V33.381ZM42.9048 32.4286H43.8571V33.381H42.9048V32.4286ZM43.8571 31.4762H44.8095V32.4286H43.8571V31.4762ZM44.8095 31.4762H45.7619V32.4286H44.8095V31.4762ZM45.7619 30.5238H46.7143V31.4762H45.7619V30.5238ZM46.7143 30.5238H47.6667V31.4762H46.7143V30.5238ZM47.6667 30.5238H48.619V31.4762H47.6667V30.5238ZM48.619 30.5238H49.5714V31.4762H48.619V30.5238ZM49.5714 30.5238H50.5238V31.4762H49.5714V30.5238ZM50.5238 30.5238H51.4762V31.4762H50.5238V30.5238ZM51.4762 31.4762H52.4286V32.4286H51.4762V31.4762ZM52.4286 31.4762H53.381V32.4286H52.4286V31.4762ZM53.381 32.4286H54.3333V33.381H53.381V32.4286ZM53.381 33.381H54.3333V34.3333H53.381V33.381Z" fill="black"/>
<path d="M33.7143 23.8571H34.8571V25H33.7143V23.8571ZM38.2857 23.8571H39.4286V25H38.2857V23.8571ZM38.2857 28.4286H39.4286V29.5714H38.2857V28.4286ZM31.4286 23.8571H32.5714V25H31.4286V23.8571ZM32.5714 23.8571H33.7143V25H32.5714V23.8571ZM36 23.8571H37.1429V25H36V23.8571ZM40.5714 23.8571H41.7143V25H40.5714V23.8571ZM37.1429 23.8571H38.2857V25H37.1429V23.8571ZM41.7143 23.8571H42.8571V25H41.7143V23.8571ZM31.4286 28.4286H32.5714V29.5714H31.4286V28.4286ZM34.8571 28.4286H36V29.5714H34.8571V28.4286ZM36 28.4286H37.1429V29.5714H36V28.4286ZM39.4286 28.4286H40.5714V29.5714H39.4286V28.4286ZM40.5714 28.4286H41.7143V29.5714H40.5714V28.4286ZM30.2857 28.4286H31.4286V29.5714H30.2857V28.4286ZM31.4286 27.2857H32.5714V28.4286H31.4286V27.2857ZM34.8571 27.2857H36V28.4286H34.8571V27.2857ZM36 27.2857H37.1429V28.4286H36V27.2857ZM39.4286 27.2857H40.5714V28.4286H39.4286V27.2857ZM40.5714 27.2857H41.7143V28.4286H40.5714V27.2857ZM41.7143 27.2857H42.8571V28.4286H41.7143V27.2857ZM32.5714 22.7143H33.7143V23.8571H32.5714V22.7143ZM33.7143 22.7143H34.8571V23.8571H33.7143V22.7143ZM38.2857 22.7143H39.4286V23.8571H38.2857V22.7143ZM41.7143 22.7143H42.8571V23.8571H41.7143V22.7143ZM42.8571 22.7143H44V23.8571H42.8571V22.7143ZM33.7143 28.4286H34.8571V29.5714H33.7143V28.4286ZM37.1429 22.7143H38.2857V23.8571H37.1429V22.7143ZM37.1429 18.1429H38.2857V19.2857H37.1429V18.1429ZM37.1429 19.2857H38.2857V20.4286H37.1429V19.2857ZM37.1429 20.4286H38.2857V21.5714H37.1429V20.4286ZM36 20.4286H37.1429V21.5714H36V20.4286ZM36 21.5714H37.1429V22.7143H36V21.5714ZM36 22.7143H37.1429V23.8571H36V22.7143ZM34.8571 22.7143H36V23.8571H34.8571V22.7143ZM34.8571 23.8571H36V25H34.8571V23.8571ZM34.8571 25H36V26.1429H34.8571V25ZM33.7143 25H34.8571V26.1429H33.7143V25ZM33.7143 26.1429H34.8571V27.2857H33.7143V26.1429ZM32.5714 27.2857H33.7143V28.4286H32.5714V27.2857ZM32.5714 28.4286H33.7143V29.5714H32.5714V28.4286ZM32.5714 29.5714H33.7143V30.7143H32.5714V29.5714ZM31.4286 29.5714H32.5714V30.7143H31.4286V29.5714ZM31.4286 30.7143H32.5714V31.8571H31.4286V30.7143ZM31.4286 31.8571H32.5714V33H31.4286V31.8571ZM41.7143 18.1429H42.8571V19.2857H41.7143V18.1429ZM41.7143 19.2857H42.8571V20.4286H41.7143V19.2857ZM41.7143 20.4286H42.8571V21.5714H41.7143V20.4286ZM40.5714 20.4286H41.7143V21.5714H40.5714V20.4286ZM40.5714 21.5714H41.7143V22.7143H40.5714V21.5714ZM40.5714 22.7143H41.7143V23.8571H40.5714V22.7143ZM39.4286 22.7143H40.5714V23.8571H39.4286V22.7143ZM39.4286 23.8571H40.5714V25H39.4286V23.8571ZM39.4286 25H40.5714V26.1429H39.4286V25ZM38.2857 25H39.4286V26.1429H38.2857V25ZM38.2857 26.1429H39.4286V27.2857H38.2857V26.1429ZM38.2857 27.2857H39.4286V28.4286H38.2857V27.2857ZM37.1429 27.2857H38.2857V28.4286H37.1429V27.2857ZM37.1429 28.4286H38.2857V29.5714H37.1429V28.4286ZM37.1429 29.5714H38.2857V30.7143H37.1429V29.5714ZM36 29.5714H37.1429V30.7143H36V29.5714ZM36 30.7143H37.1429V31.8571H36V30.7143ZM36 31.8571H37.1429V33H36V31.8571ZM31.4286 22.7143H32.5714V23.8571H31.4286V22.7143ZM30.2857 23.8571H31.4286V25H30.2857V23.8571ZM30.2857 27.2857H31.4286V28.4286H30.2857V27.2857ZM29.1429 28.4286H30.2857V29.5714H29.1429V28.4286ZM33.7143 27.2857H34.8571V28.4286H33.7143V27.2857Z" fill="black"/>
<path d="M5.71429 20.8571H6.85714V22H5.71429V20.8571ZM10.2857 20.8571H11.4286V22H10.2857V20.8571ZM10.2857 25.4286H11.4286V26.5714H10.2857V25.4286ZM3.42857 20.8571H4.57143V22H3.42857V20.8571ZM4.57143 20.8571H5.71429V22H4.57143V20.8571ZM8 20.8571H9.14286V22H8V20.8571ZM12.5714 20.8571H13.7143V22H12.5714V20.8571ZM9.14286 20.8571H10.2857V22H9.14286V20.8571ZM13.7143 20.8571H14.8571V22H13.7143V20.8571ZM3.42857 25.4286H4.57143V26.5714H3.42857V25.4286ZM6.85714 25.4286H8V26.5714H6.85714V25.4286ZM8 25.4286H9.14286V26.5714H8V25.4286ZM11.4286 25.4286H12.5714V26.5714H11.4286V25.4286ZM12.5714 25.4286H13.7143V26.5714H12.5714V25.4286ZM2.28571 25.4286H3.42857V26.5714H2.28571V25.4286ZM3.42857 24.2857H4.57143V25.4286H3.42857V24.2857ZM6.85714 24.2857H8V25.4286H6.85714V24.2857ZM8 24.2857H9.14286V25.4286H8V24.2857ZM11.4286 24.2857H12.5714V25.4286H11.4286V24.2857ZM12.5714 24.2857H13.7143V25.4286H12.5714V24.2857ZM13.7143 24.2857H14.8571V25.4286H13.7143V24.2857ZM4.57143 19.7143H5.71429V20.8571H4.57143V19.7143ZM5.71429 19.7143H6.85714V20.8571H5.71429V19.7143ZM10.2857 19.7143H11.4286V20.8571H10.2857V19.7143ZM13.7143 19.7143H14.8571V20.8571H13.7143V19.7143ZM14.8571 19.7143H16V20.8571H14.8571V19.7143ZM5.71429 25.4286H6.85714V26.5714H5.71429V25.4286ZM9.14286 19.7143H10.2857V20.8571H9.14286V19.7143ZM9.14286 15.1429H10.2857V16.2857H9.14286V15.1429ZM9.14286 16.2857H10.2857V17.4286H9.14286V16.2857ZM9.14286 17.4286H10.2857V18.5714H9.14286V17.4286ZM8 17.4286H9.14286V18.5714H8V17.4286ZM8 18.5714H9.14286V19.7143H8V18.5714ZM8 19.7143H9.14286V20.8571H8V19.7143ZM6.85714 19.7143H8V20.8571H6.85714V19.7143ZM6.85714 20.8571H8V22H6.85714V20.8571ZM6.85714 22H8V23.1429H6.85714V22ZM5.71429 22H6.85714V23.1429H5.71429V22ZM5.71429 23.1429H6.85714V24.2857H5.71429V23.1429ZM4.57143 24.2857H5.71429V25.4286H4.57143V24.2857ZM4.57143 25.4286H5.71429V26.5714H4.57143V25.4286ZM4.57143 26.5714H5.71429V27.7143H4.57143V26.5714ZM3.42857 26.5714H4.57143V27.7143H3.42857V26.5714ZM3.42857 27.7143H4.57143V28.8571H3.42857V27.7143ZM3.42857 28.8571H4.57143V30H3.42857V28.8571ZM13.7143 15.1429H14.8571V16.2857H13.7143V15.1429ZM13.7143 16.2857H14.8571V17.4286H13.7143V16.2857ZM13.7143 17.4286H14.8571V18.5714H13.7143V17.4286ZM12.5714 17.4286H13.7143V18.5714H12.5714V17.4286ZM12.5714 18.5714H13.7143V19.7143H12.5714V18.5714ZM12.5714 19.7143H13.7143V20.8571H12.5714V19.7143ZM11.4286 19.7143H12.5714V20.8571H11.4286V19.7143ZM11.4286 20.8571H12.5714V22H11.4286V20.8571ZM11.4286 22H12.5714V23.1429H11.4286V22ZM10.2857 22H11.4286V23.1429H10.2857V22ZM10.2857 23.1429H11.4286V24.2857H10.2857V23.1429ZM10.2857 24.2857H11.4286V25.4286H10.2857V24.2857ZM9.14286 24.2857H10.2857V25.4286H9.14286V24.2857ZM9.14286 25.4286H10.2857V26.5714H9.14286V25.4286ZM9.14286 26.5714H10.2857V27.7143H9.14286V26.5714ZM8 26.5714H9.14286V27.7143H8V26.5714ZM8 27.7143H9.14286V28.8571H8V27.7143ZM8 28.8571H9.14286V30H8V28.8571ZM3.42857 19.7143H4.57143V20.8571H3.42857V19.7143ZM2.28571 20.8571H3.42857V22H2.28571V20.8571ZM2.28571 24.2857H3.42857V25.4286H2.28571V24.2857ZM1.14286 25.4286H2.28571V26.5714H1.14286V25.4286ZM5.71429 24.2857H6.85714V25.4286H5.71429V24.2857Z" fill="black"/>
<path d="M24.1429 42.2857H25.8571V44H24.1429V42.2857ZM24.1429 40.5714H25.8571V42.2857H24.1429V40.5714ZM22.4286 40.5714H24.1429V42.2857H22.4286V40.5714ZM22.4286 42.2857H24.1429V44H22.4286V42.2857ZM22.4286 35.4286H24.1429V37.1429H22.4286V35.4286ZM22.4286 33.7143H24.1429V35.4286H22.4286V33.7143ZM24.1429 33.7143H25.8571V35.4286H24.1429V33.7143ZM24.1429 32H25.8571V33.7143H24.1429V32ZM24.1429 30.2857H25.8571V32H24.1429V30.2857ZM24.1429 28.5714H25.8571V30.2857H24.1429V28.5714ZM24.1429 26.8571H25.8571V28.5714H24.1429V26.8571ZM24.1429 25.1429H25.8571V26.8571H24.1429V25.1429ZM24.1429 23.4286H25.8571V25.1429H24.1429V23.4286ZM22.4286 23.4286H24.1429V25.1429H22.4286V23.4286ZM22.4286 25.1429H24.1429V26.8571H22.4286V25.1429ZM22.4286 26.8571H24.1429V28.5714H22.4286V26.8571ZM22.4286 28.5714H24.1429V30.2857H22.4286V28.5714ZM22.4286 30.2857H24.1429V32H22.4286V30.2857ZM22.4286 32H24.1429V33.7143H22.4286V32ZM20.7143 25.1429H22.4286V26.8571H20.7143V25.1429ZM25.8571 25.1429H27.5714V26.8571H25.8571V25.1429ZM24.1429 35.4286H25.8571V37.1429H24.1429V35.4286ZM22.4286 37.1429H24.1429V38.8571H22.4286V37.1429Z" fill="black"/>
</svg>
