<svg width="147" height="405" viewBox="0 0 147 405" fill="none" xmlns="http://www.w3.org/2000/svg">
<path d="M146.576 0H0V404.057H146.576V0Z" fill="#BDDB88"/>
<path opacity="0.61" d="M133.065 33.9696H10.7278V371.22H133.065V33.9696Z" fill="#F4E9C8"/>
<path d="M133.558 80.0176H11.1819V88.8737H133.558V80.0176Z" fill="#F4E9C8"/>
<path d="M132.841 122.878H10.4641V131.734H132.841V122.878Z" fill="#F4E9C8"/>
<path d="M132.841 162.164H10.4641V171.02H132.841V162.164Z" fill="#F4E9C8"/>
<path d="M134.984 207.167H12.6079V216.023H134.984V207.167Z" fill="#F4E9C8"/>
<path d="M134.271 252.17H11.895V261.026H134.271V252.17Z" fill="#F4E9C8"/>
<path d="M133.558 306.459H11.1819V315.315H133.558V306.459Z" fill="#F4E9C8"/>
<path d="M133.065 315.442H11.0403V371.22H133.065V315.442Z" fill="#EBC140"/>
<path d="M133.065 261.104H11.0403V307.235H133.065V261.104Z" fill="#EBC140"/>
<path d="M133.065 213.855H11.0403V255.246H133.065V213.855Z" fill="#EBC140"/>
<path d="M76.0323 4.99927L64.4597 18.9377L83.137 15.5202L69.7187 26.2999L90.7642 13.1524L72.0869 14.9929L76.0323 4.99927Z" fill="#EBC140"/>
</svg>
